<svg width="22" height="20" viewBox="0 0 22 20" fill="none" xmlns="http://www.w3.org/2000/svg">
<g clip-path="url(#clip0_1191_402)">
<path d="M14.6475 4.91684V14.0154C14.6475 15.7639 13.1073 17.1801 11.2058 17.1801C9.30436 17.1801 7.76424 15.7639 7.76424 14.0154V4.12566C7.76424 3.60107 7.99086 3.09797 8.39425 2.72704C8.79764 2.3561 9.34476 2.14771 9.91524 2.14771C10.4857 2.14771 11.0328 2.3561 11.4362 2.72704C11.8396 3.09797 12.0662 3.60107 12.0662 4.12566V12.4331C12.0662 12.8682 11.6791 13.2242 11.2058 13.2242C10.7326 13.2242 10.3454 12.8682 10.3454 12.4331V4.91684H9.05484V12.4331C9.05484 12.9576 9.28146 13.4607 9.68485 13.8317C10.0882 14.2026 10.6354 14.411 11.2058 14.411C11.7763 14.411 12.3234 14.2026 12.7268 13.8317C13.1302 13.4607 13.3569 12.9576 13.3569 12.4331V4.12566C13.3569 2.37715 11.8167 0.960938 9.91524 0.960938C8.01375 0.960938 6.47363 2.37715 6.47363 4.12566V14.0154C6.47363 16.4206 8.59022 18.3669 11.2058 18.3669C13.8215 18.3669 15.9381 16.4206 15.9381 14.0154V4.91684H14.6475Z" fill="#C4C4C4"/>
</g>
<defs>
<clipPath id="clip0_1191_402">
<rect width="20.6497" height="18.9883" fill="white" transform="translate(0.451172 0.169678)"/>
</clipPath>
</defs>
</svg>
