<svg width="21" height="20" viewBox="0 0 21 20" fill="none" xmlns="http://www.w3.org/2000/svg">
<g clip-path="url(#clip0_1191_400)">
<path d="M2.64821 1.30468L20.1842 8.73742C20.3612 8.81251 20.5106 8.93043 20.6153 9.07757C20.7199 9.22471 20.7754 9.39507 20.7754 9.56898C20.7754 9.74289 20.7199 9.91325 20.6153 10.0604C20.5106 10.2075 20.3612 10.3255 20.1842 10.4005L2.64821 17.8333C2.46837 17.9097 2.26754 17.9386 2.06964 17.9167C1.87174 17.8948 1.68512 17.823 1.53199 17.7098C1.37887 17.5965 1.2657 17.4467 1.20597 17.2781C1.14623 17.1095 1.14245 16.9292 1.19507 16.7587L2.9495 11.0591C2.97097 10.9893 3.01517 10.9266 3.0766 10.8788C3.13802 10.8311 3.21394 10.8004 3.29489 10.7907L11.7924 9.76774C11.8278 9.76334 11.8614 9.75091 11.8898 9.73166C11.9182 9.71241 11.9406 9.68699 11.9547 9.65785L11.9697 9.61139C11.9762 9.57021 11.9669 9.52828 11.9432 9.4924C11.9194 9.45651 11.8827 9.42879 11.839 9.41373L11.7932 9.40267L3.30404 8.38046C3.22324 8.37057 3.1475 8.33984 3.08624 8.29212C3.02498 8.24439 2.9809 8.18175 2.95948 8.11201L1.19507 2.37925C1.14245 2.20878 1.14623 2.0285 1.20597 1.85988C1.2657 1.69127 1.37887 1.54142 1.53199 1.42819C1.68512 1.31496 1.87174 1.24311 2.06964 1.22122C2.26754 1.19932 2.46837 1.22829 2.64821 1.30468Z" fill="#C4C4C4"/>
</g>
<defs>
<clipPath id="clip0_1191_400">
<rect width="20.6497" height="18.9883" fill="white" transform="translate(0.125977 0.169678)"/>
</clipPath>
</defs>
</svg>
