<svg width="212" height="66" viewBox="0 0 212 66" fill="none" xmlns="http://www.w3.org/2000/svg">
<path d="M28.4851 52.864C23.2531 52.864 18.5251 51.736 14.3011 49.48C10.1251 47.224 6.83707 44.128 4.43707 40.192C2.08507 36.208 0.909074 31.744 0.909074 26.8C0.909074 21.856 2.08507 17.416 4.43707 13.48C6.83707 9.496 10.1251 6.376 14.3011 4.12C18.5251 1.864 23.2531 0.735999 28.4851 0.735999C33.7171 0.735999 38.4211 1.864 42.5971 4.12C46.7731 6.376 50.0611 9.496 52.4611 13.48C54.8611 17.416 56.0611 21.856 56.0611 26.8C56.0611 31.744 54.8611 36.208 52.4611 40.192C50.0611 44.128 46.7731 47.224 42.5971 49.48C38.4211 51.736 33.7171 52.864 28.4851 52.864ZM28.4851 42.928C31.4611 42.928 34.1491 42.256 36.5491 40.912C38.9491 39.52 40.8211 37.6 42.1651 35.152C43.5571 32.704 44.2531 29.92 44.2531 26.8C44.2531 23.68 43.5571 20.896 42.1651 18.448C40.8211 16 38.9491 14.104 36.5491 12.76C34.1491 11.368 31.4611 10.672 28.4851 10.672C25.5091 10.672 22.8211 11.368 20.4211 12.76C18.0211 14.104 16.1251 16 14.7331 18.448C13.3891 20.896 12.7171 23.68 12.7171 26.8C12.7171 29.92 13.3891 32.704 14.7331 35.152C16.1251 37.6 18.0211 39.52 20.4211 40.912C22.8211 42.256 25.5091 42.928 28.4851 42.928ZM82.4671 52.576C78.3871 52.576 74.7151 51.736 71.4511 50.056C68.2351 48.328 65.7151 45.952 63.8911 42.928C62.0671 39.904 61.1551 36.472 61.1551 32.632C61.1551 28.792 62.0671 25.36 63.8911 22.336C65.7151 19.312 68.2351 16.96 71.4511 15.28C74.7151 13.552 78.3871 12.688 82.4671 12.688C86.5471 12.688 90.1951 13.552 93.4111 15.28C96.6271 16.96 99.1471 19.312 100.971 22.336C102.795 25.36 103.707 28.792 103.707 32.632C103.707 36.472 102.795 39.904 100.971 42.928C99.1471 45.952 96.6271 48.328 93.4111 50.056C90.1951 51.736 86.5471 52.576 82.4671 52.576ZM82.4671 43.36C85.3471 43.36 87.6991 42.4 89.5231 40.48C91.3951 38.512 92.3311 35.896 92.3311 32.632C92.3311 29.368 91.3951 26.776 89.5231 24.856C87.6991 22.888 85.3471 21.904 82.4671 21.904C79.5871 21.904 77.2111 22.888 75.3391 24.856C73.4671 26.776 72.5311 29.368 72.5311 32.632C72.5311 35.896 73.4671 38.512 75.3391 40.48C77.2111 42.4 79.5871 43.36 82.4671 43.36ZM134.111 12.688C137.711 12.688 140.975 13.528 143.903 15.208C146.879 16.84 149.207 19.168 150.887 22.192C152.567 25.168 153.407 28.648 153.407 32.632C153.407 36.616 152.567 40.12 150.887 43.144C149.207 46.12 146.879 48.448 143.903 50.128C140.975 51.76 137.711 52.576 134.111 52.576C129.167 52.576 125.279 51.016 122.447 47.896V65.968H111.215V13.264H121.943V17.728C124.727 14.368 128.783 12.688 134.111 12.688ZM132.167 43.36C135.047 43.36 137.399 42.4 139.223 40.48C141.095 38.512 142.031 35.896 142.031 32.632C142.031 29.368 141.095 26.776 139.223 24.856C137.399 22.888 135.047 21.904 132.167 21.904C129.287 21.904 126.911 22.888 125.039 24.856C123.215 26.776 122.303 29.368 122.303 32.632C122.303 35.896 123.215 38.512 125.039 40.48C126.911 42.4 129.287 43.36 132.167 43.36ZM173.958 52.576C170.742 52.576 167.598 52.192 164.526 51.424C161.454 50.608 159.006 49.6 157.182 48.4L160.926 40.336C162.654 41.44 164.742 42.352 167.19 43.072C169.638 43.744 172.038 44.08 174.39 44.08C179.142 44.08 181.518 42.904 181.518 40.552C181.518 39.448 180.87 38.656 179.574 38.176C178.278 37.696 176.286 37.288 173.598 36.952C170.43 36.472 167.814 35.92 165.75 35.296C163.686 34.672 161.886 33.568 160.35 31.984C158.862 30.4 158.118 28.144 158.118 25.216C158.118 22.768 158.814 20.608 160.206 18.736C161.646 16.816 163.71 15.328 166.398 14.272C169.134 13.216 172.35 12.688 176.046 12.688C178.782 12.688 181.494 13 184.182 13.624C186.918 14.2 189.174 15.016 190.95 16.072L187.206 24.064C183.798 22.144 180.078 21.184 176.046 21.184C173.646 21.184 171.846 21.52 170.646 22.192C169.446 22.864 168.846 23.728 168.846 24.784C168.846 25.984 169.494 26.824 170.79 27.304C172.086 27.784 174.15 28.24 176.982 28.672C180.15 29.2 182.742 29.776 184.758 30.4C186.774 30.976 188.526 32.056 190.014 33.64C191.502 35.224 192.246 37.432 192.246 40.264C192.246 42.664 191.526 44.8 190.086 46.672C188.646 48.544 186.534 50.008 183.75 51.064C181.014 52.072 177.75 52.576 173.958 52.576ZM197.736 1.6H211.128L208.896 34.504H199.968L197.736 1.6ZM204.432 52.576C202.464 52.576 200.808 51.952 199.464 50.704C198.168 49.408 197.52 47.848 197.52 46.024C197.52 44.2 198.168 42.688 199.464 41.488C200.76 40.24 202.416 39.616 204.432 39.616C206.448 39.616 208.104 40.24 209.4 41.488C210.696 42.688 211.344 44.2 211.344 46.024C211.344 47.848 210.672 49.408 209.328 50.704C208.032 51.952 206.4 52.576 204.432 52.576Z" fill="white"/>
</svg>
