<svg width="58" height="58" viewBox="0 0 58 58" fill="none" xmlns="http://www.w3.org/2000/svg">
<path d="M29 58C45.0163 58 58 45.0163 58 29C58 12.9837 45.0163 0 29 0C12.9837 0 0 12.9837 0 29C0 45.0163 12.9837 58 29 58Z" fill="#F93C2F"/>
<path d="M37.027 6.08114H20.973C18.2598 6.08114 16.0623 8.2787 16.0623 10.9919V47.0081C16.0623 49.7213 18.2598 51.9189 20.973 51.9189H37.027C39.7402 51.9189 41.9378 49.7213 41.9378 47.0081V10.9919C41.9378 8.2787 39.7402 6.08114 37.027 6.08114ZM38.8277 46.9549H19.1724C18.8941 46.9549 18.669 46.7298 18.669 46.4516C18.669 46.1774 18.8941 45.9523 19.1724 45.9523H38.8277C39.1059 45.9523 39.331 46.1774 39.331 46.4516C39.331 46.7298 39.1059 46.9549 38.8277 46.9549ZM38.8277 43.0754H19.1724C18.8941 43.0754 18.669 42.8503 18.669 42.5762C18.669 42.2979 18.8941 42.0728 19.1724 42.0728H38.8277C39.1059 42.0728 39.331 42.2983 39.331 42.5762C39.331 42.8503 39.1059 43.0754 38.8277 43.0754ZM38.8277 39.1959H19.1724C18.8941 39.1959 18.669 38.9709 18.669 38.6963C18.669 38.418 18.8941 38.1933 19.1724 38.1933H38.8277C39.1059 38.1933 39.331 38.4184 39.331 38.6963C39.331 38.9709 39.1059 39.1959 38.8277 39.1959ZM38.8277 35.3205H19.1724C18.8941 35.3205 18.669 35.0955 18.669 34.8176C18.669 34.5397 18.8941 34.3183 19.1724 34.3183H38.8277C39.1059 34.3183 39.331 34.5393 39.331 34.8176C39.331 35.0959 39.1059 35.3205 38.8277 35.3205ZM38.8277 31.441H19.1724C18.8941 31.441 18.669 31.216 18.669 30.9377C18.669 30.6635 18.8941 30.4384 19.1724 30.4384H38.8277C39.1059 30.4384 39.331 30.6635 39.331 30.9377C39.331 31.216 39.1059 31.441 38.8277 31.441ZM38.8277 27.5616H19.1724C18.8941 27.5616 18.669 27.3365 18.669 27.0623C18.669 26.784 18.8941 26.559 19.1724 26.559H38.8277C39.1059 26.559 39.331 26.784 39.331 27.0623C39.331 27.3365 39.1059 27.5616 38.8277 27.5616ZM38.8277 23.6862H19.1724C18.8941 23.6862 18.669 23.4611 18.669 23.1828C18.669 22.9045 18.8941 22.6795 19.1724 22.6795H38.8277C39.1059 22.6795 39.331 22.9045 39.331 23.1828C39.331 23.4611 39.1059 23.6862 38.8277 23.6862ZM38.8277 19.8067H19.1724C18.8941 19.8067 18.669 19.5816 18.669 19.3033C18.669 19.0291 18.8941 18.8041 19.1724 18.8041H38.8277C39.1059 18.8041 39.331 19.0291 39.331 19.3033C39.331 19.5816 39.1059 19.8067 38.8277 19.8067ZM38.8277 15.9272H19.1724C18.8941 15.9272 18.669 15.7021 18.669 15.4279C18.669 15.1496 18.8941 14.9246 19.1724 14.9246H38.8277C39.1059 14.9246 39.331 15.1496 39.331 15.4279C39.331 15.7021 39.1059 15.9272 38.8277 15.9272ZM38.8277 12.0477H19.1724C18.8941 12.0477 18.669 11.8267 18.669 11.5484C18.669 11.2702 18.8941 11.0451 19.1724 11.0451H38.8277C39.1059 11.0451 39.331 11.2702 39.331 11.5484C39.331 11.8267 39.1059 12.0477 38.8277 12.0477Z" fill="white"/>
<path d="M37.0271 6.08114V5.87653H20.973C18.1469 5.87653 15.8577 8.16575 15.8577 10.9919V47.0081C15.8577 49.8343 18.1469 52.1235 20.973 52.1235H37.0271C39.8532 52.1235 42.1424 49.8343 42.1424 47.0081V10.9919C42.1424 8.16575 39.8532 5.87653 37.0271 5.87653V6.08114V6.28575C38.328 6.28575 39.5033 6.81202 40.3553 7.66363C41.2069 8.51605 41.7332 9.69095 41.7332 10.9919V47.0081C41.7332 48.3091 41.2069 49.4844 40.3553 50.3364C39.5033 51.188 38.328 51.7142 37.0271 51.7142H20.973C19.6721 51.7142 18.4972 51.188 17.6448 50.3364C16.7928 49.4844 16.2669 48.3091 16.2669 47.0081V10.9919C16.2669 9.69095 16.7932 8.51605 17.6448 7.66363C18.4972 6.81161 19.6721 6.28575 20.973 6.28575H37.0271V6.08114ZM38.8277 46.9549V46.7503H19.1724C19.0071 46.7503 18.8737 46.6173 18.8737 46.4516C18.8737 46.2916 19.0067 46.1573 19.1724 46.1569H38.8277C38.993 46.1573 39.126 46.292 39.1264 46.4516C39.126 46.6169 38.993 46.7503 38.8277 46.7503V46.9549V47.1595C39.2185 47.1587 39.5356 46.8432 39.5356 46.4516C39.5348 46.0628 39.2185 45.7481 38.8277 45.7477H19.1724C18.7816 45.7481 18.4649 46.0632 18.4645 46.4516C18.4653 46.8428 18.7812 47.1591 19.1724 47.1595H38.8277V46.9549ZM38.8277 43.0754V42.8708H19.1724C19.0067 42.8704 18.8741 42.7362 18.8737 42.5762C18.8737 42.4108 19.0071 42.2778 19.1724 42.2774H38.8277C38.9926 42.2778 39.126 42.4112 39.1264 42.5762C39.126 42.7358 38.993 42.8704 38.8277 42.8708V43.0754V43.28C39.2185 43.2796 39.5352 42.9649 39.5356 42.5762C39.5356 42.1849 39.2189 41.8682 38.8277 41.8682H19.1724C18.7808 41.8682 18.4653 42.1854 18.4645 42.5762C18.4649 42.9645 18.7816 43.2796 19.1724 43.28H38.8277V43.0754ZM38.8277 39.1959V38.9913H19.1724C19.0067 38.9909 18.8741 38.8567 18.8737 38.6963C18.8737 38.5313 19.0071 38.3979 19.1724 38.3979H38.8277C38.993 38.3983 39.126 38.5313 39.1264 38.6963C39.126 38.8563 38.993 38.9909 38.8277 38.9913V39.1959V39.4006C39.2185 39.4001 39.5352 39.0854 39.5356 38.6963C39.5356 38.305 39.2185 37.9887 38.8277 37.9887H19.1724C18.7812 37.9895 18.4653 38.305 18.4645 38.6963C18.4649 39.085 18.7816 39.4001 19.1724 39.4006H38.8277V39.1959ZM38.8277 35.3205V35.1159H19.1724C19.0071 35.1159 18.8737 34.9825 18.8737 34.8176C18.8741 34.6535 19.0042 34.5238 19.1724 34.523H38.8277C38.9955 34.5238 39.126 34.6531 39.1264 34.8176C39.126 34.9825 38.993 35.1159 38.8277 35.1159V35.3205V35.5252C39.2185 35.5252 39.5356 35.2088 39.5356 34.8176C39.5348 34.4256 39.216 34.1145 38.8277 34.1137H19.1724C18.9784 34.1137 18.8004 34.1911 18.6723 34.3179C18.5443 34.4448 18.464 34.6228 18.4645 34.8176C18.4653 35.2088 18.7812 35.5247 19.1724 35.5252H38.8277V35.3205ZM38.8277 31.4411V31.2364H19.1724C19.0071 31.2364 18.8737 31.1034 18.8737 30.9377C18.8737 30.7777 19.0067 30.6435 19.1724 30.6431H38.8277C38.993 30.6435 39.126 30.7781 39.1264 30.9377C39.126 31.103 38.993 31.2364 38.8277 31.2364V31.4411V31.6457C39.2185 31.6448 39.5356 31.3293 39.5356 30.9377C39.5348 30.5489 39.2185 30.2342 38.8277 30.2338H19.1724C18.7816 30.2342 18.4649 30.5493 18.4645 30.9377C18.4653 31.3289 18.7812 31.6453 19.1724 31.6457H38.8277V31.4411ZM38.8277 27.5616V27.3569H19.1724C19.0067 27.3569 18.8741 27.2219 18.8737 27.0623C18.8737 26.897 19.0071 26.7636 19.1724 26.7636H38.8277C38.9926 26.7636 39.126 26.8974 39.1264 27.0623C39.126 27.2219 38.993 27.3569 38.8277 27.3569V27.5616V27.7662C39.2185 27.7658 39.5352 27.4511 39.5356 27.0623C39.5356 26.6711 39.2189 26.3543 38.8277 26.3543H19.1724C18.7812 26.3552 18.4653 26.6711 18.4645 27.0623C18.4649 27.4511 18.7812 27.7658 19.1724 27.7662H38.8277V27.5616ZM38.8277 23.6862V23.4816H19.1724C19.0071 23.4816 18.8737 23.3481 18.8737 23.1828C18.8737 23.0175 19.0071 22.8841 19.1724 22.8841H38.8277C38.9926 22.8841 39.126 23.0179 39.1264 23.1828C39.126 23.3481 38.993 23.4816 38.8277 23.4816V23.6862V23.8908C39.2185 23.89 39.5356 23.5744 39.5356 23.1828C39.5356 22.7916 39.2189 22.4748 38.8277 22.4748H19.1724C18.7812 22.4757 18.4653 22.7916 18.4645 23.1828C18.4653 23.574 18.7812 23.89 19.1724 23.8908H38.8277V23.6862ZM38.8277 19.8067V19.6021H19.1724C19.0071 19.6021 18.8737 19.4687 18.8737 19.3033C18.8737 19.1437 19.0067 19.0091 19.1724 19.0087H38.8277C38.993 19.0087 39.126 19.1437 39.1264 19.3033C39.126 19.4687 38.993 19.6021 38.8277 19.6021V19.8067V20.0113C39.2185 20.0105 39.5356 19.695 39.5356 19.3033C39.5348 18.9146 39.2185 18.5999 38.8277 18.5995H19.1724C18.7816 18.5999 18.4649 18.9146 18.4645 19.3033C18.4653 19.6945 18.7812 20.0105 19.1724 20.0113H38.8277V19.8067ZM38.8277 15.9272V15.7226H19.1724C19.0067 15.7226 18.8741 15.5875 18.8737 15.4279C18.8737 15.2626 19.0071 15.1292 19.1724 15.1292H38.8277C38.993 15.1292 39.126 15.2626 39.1264 15.4279C39.126 15.5875 38.993 15.7222 38.8277 15.7226V15.9272V16.1318C39.2185 16.1314 39.5352 15.8167 39.5356 15.4279C39.5356 15.0363 39.2185 14.7208 38.8277 14.72H19.1724C18.7812 14.7208 18.4653 15.0367 18.4645 15.4279C18.4649 15.8167 18.7816 16.1314 19.1724 16.1318H38.8277V15.9272ZM38.8277 12.0477V11.8431H19.1724C19.0042 11.8423 18.8741 11.7129 18.8737 11.5484C18.8737 11.3831 19.0071 11.2497 19.1724 11.2497H38.8277C38.993 11.2497 39.126 11.3831 39.1264 11.5484C39.126 11.7125 38.9955 11.8423 38.8277 11.8431V12.0477V12.2523C39.216 12.2515 39.5352 11.9409 39.5356 11.5484C39.5356 11.1568 39.2185 10.8413 38.8277 10.8405H19.1724C18.7812 10.8413 18.4653 11.1572 18.4645 11.5484C18.4645 11.7432 18.5443 11.9217 18.6723 12.0477C18.8004 12.1746 18.9784 12.2523 19.1724 12.2523H38.8277V12.0477Z" fill="white"/>
</svg>
