<svg width="24" height="20" viewBox="0 0 24 20" fill="none" xmlns="http://www.w3.org/2000/svg">
<ellipse cx="12" cy="10" rx="12" ry="10" fill="white"/>
<path d="M11.922 15.168C11.1473 15.168 10.4287 15.042 9.766 14.79C9.11267 14.538 8.54333 14.1833 8.058 13.726C7.582 13.2687 7.20867 12.732 6.938 12.116C6.67667 11.5 6.546 10.828 6.546 10.1C6.546 9.372 6.67667 8.7 6.938 8.084C7.20867 7.468 7.58667 6.93133 8.072 6.474C8.55733 6.01667 9.12667 5.662 9.78 5.41C10.4333 5.158 11.1427 5.032 11.908 5.032C12.6827 5.032 13.392 5.158 14.036 5.41C14.6893 5.662 15.254 6.01667 15.73 6.474C16.2153 6.93133 16.5933 7.468 16.864 8.084C17.1347 8.69067 17.27 9.36267 17.27 10.1C17.27 10.828 17.1347 11.5047 16.864 12.13C16.5933 12.746 16.2153 13.2827 15.73 13.74C15.254 14.188 14.6893 14.538 14.036 14.79C13.392 15.042 12.6873 15.168 11.922 15.168ZM11.908 13.236C12.3467 13.236 12.748 13.1613 13.112 13.012C13.4853 12.8627 13.812 12.648 14.092 12.368C14.372 12.088 14.5867 11.7567 14.736 11.374C14.8947 10.9913 14.974 10.5667 14.974 10.1C14.974 9.63333 14.8947 9.20867 14.736 8.826C14.5867 8.44333 14.372 8.112 14.092 7.832C13.8213 7.552 13.4993 7.33733 13.126 7.188C12.7527 7.03867 12.3467 6.964 11.908 6.964C11.4693 6.964 11.0633 7.03867 10.69 7.188C10.326 7.33733 10.004 7.552 9.724 7.832C9.444 8.112 9.22467 8.44333 9.066 8.826C8.91667 9.20867 8.842 9.63333 8.842 10.1C8.842 10.5573 8.91667 10.982 9.066 11.374C9.22467 11.7567 9.43933 12.088 9.71 12.368C9.99 12.648 10.3167 12.8627 10.69 13.012C11.0633 13.1613 11.4693 13.236 11.908 13.236Z" fill="#4A4D51"/>
</svg>
