<svg width="53" height="53" viewBox="0 0 53 53" fill="none" xmlns="http://www.w3.org/2000/svg">
<path d="M26.5 0C11.8648 0 0 11.8643 0 26.5C0 41.1357 11.8648 53 26.5 53C41.1357 53 53 41.1357 53 26.5C53 11.8643 41.1357 0 26.5 0ZM30.3909 44.1957C30.3909 44.6522 30.022 45.0216 29.5649 45.0216H23.4345C22.978 45.0216 22.6086 44.6522 22.6086 44.1957V20.8305C22.6086 20.374 22.978 20.0045 23.4345 20.0045H29.566C30.022 20.0045 30.392 20.374 30.392 20.8305V44.1957H30.3909ZM26.5 17.6142C23.8431 17.6142 21.6818 15.4529 21.6818 12.796C21.6818 10.1391 23.8431 7.97781 26.5 7.97781C29.1569 7.97781 31.3182 10.1391 31.3182 12.796C31.3182 15.4529 29.1569 17.6142 26.5 17.6142Z" fill="#F2F2F2"/>
</svg>
