<svg width="28" height="28" viewBox="0 0 28 28" fill="none" xmlns="http://www.w3.org/2000/svg">
<g clip-path="url(#clip0_1360_895)">
<path d="M27.9892 13.7011C28.0347 6.45544 21.6158 -0.0419045 13.9375 -0.00028946C6.50696 0.040555 0.0108162 6.31056 1.37717e-05 13.9693C-0.0107887 21.5763 6.33489 28.0043 14.0316 28.0005C21.8117 27.9966 28.3087 21.3621 27.9884 13.7011H27.9892Z" fill="#FF3C2F"/>
<path d="M21.4572 10.1664V20.4045C21.3569 20.4106 21.2558 20.4222 21.1539 20.4222C16.3893 20.423 11.6246 20.4214 6.85917 20.4291C6.57754 20.4291 6.48263 20.3706 6.4834 20.0654C6.49343 16.8641 6.48649 13.6628 6.4834 10.4608C6.4834 10.349 6.4834 10.2381 6.4834 10.0801C6.5922 10.1286 6.6547 10.1448 6.70331 10.1803C9.00347 11.8402 11.3013 13.5025 13.6007 15.1641C13.9741 15.4338 13.9803 15.4392 14.3484 15.1795C16.3368 13.7777 18.3221 12.3712 20.309 10.9679C20.6755 10.7089 21.0444 10.4538 21.4556 10.1664H21.4572Z" fill="white"/>
<path d="M6.71994 7.81055H21.1991C21.1991 7.81055 15.5787 12.1323 14.2485 13.1288C14.0834 13.2521 13.8573 13.2521 13.6929 13.128L6.70219 7.86295C6.67981 7.846 6.69139 7.81055 6.71994 7.81055Z" fill="white"/>
</g>
<defs>
<clipPath id="clip0_1360_895">
<rect width="28" height="28" fill="white"/>
</clipPath>
</defs>
</svg>
