<svg width="25" height="25" viewBox="0 0 25 25" fill="none" xmlns="http://www.w3.org/2000/svg">
<path d="M21.9612 5.25302L21.6289 4.92069L17.2776 0.569397L16.9453 0.237069C16.7949 0.0866379 16.5862 0 16.3729 0H3.8634C3.35219 0 2.80176 0.394828 2.80176 1.26121V16.8103V23.9384V24.1379C2.80176 24.4987 3.16469 24.8504 3.594 24.9612C3.61555 24.9668 3.63624 24.975 3.65865 24.9793C3.7259 24.9927 3.79443 25 3.8634 25H21.1367C21.2056 25 21.2742 24.9927 21.3414 24.9793C21.3638 24.975 21.3845 24.9668 21.4061 24.9612C21.8354 24.8504 22.1983 24.4987 22.1983 24.1379V23.9384V16.8103V6.025C22.1983 5.6944 22.1587 5.45043 21.9612 5.25302ZM20.6617 5.17241H17.0259V1.53664L20.6617 5.17241ZM3.8634 24.1379C3.83279 24.1379 3.80521 24.1267 3.77805 24.1168C3.71081 24.0849 3.66383 24.0177 3.66383 23.9384V17.6724H21.3362V23.9384C21.3362 24.0177 21.2893 24.0845 21.222 24.1168C21.1949 24.1267 21.1673 24.1379 21.1367 24.1379H3.8634ZM3.66383 16.8103V1.26121C3.66383 1.16767 3.67805 0.862069 3.8634 0.862069H16.1888C16.1746 0.916379 16.1638 0.972414 16.1638 1.0306V6.03448H21.1677C21.2259 6.03448 21.2815 6.02371 21.3358 6.00948C21.3358 6.01595 21.3362 6.01853 21.3362 6.025V16.8103H3.66383Z" fill="black"/>
<path d="M9.50096 19.2862C9.35743 19.1685 9.19536 19.0797 9.01476 19.0211C8.83415 18.9621 8.65139 18.9327 8.46691 18.9327H7.21777V23.2758H7.9251V21.7082H8.44967C8.67726 21.7082 8.88588 21.675 9.07424 21.6082C9.2626 21.5414 9.42381 21.447 9.55743 21.3254C9.69105 21.2039 9.79493 21.0534 9.86993 20.8745C9.9445 20.6957 9.982 20.4965 9.982 20.2763C9.982 20.0681 9.9376 19.8806 9.84924 19.7133C9.76088 19.5461 9.6445 19.4043 9.50096 19.2862ZM9.23286 20.7211C9.18932 20.8409 9.13286 20.934 9.06217 21.0008C8.99148 21.0677 8.91389 21.1159 8.82941 21.1452C8.74493 21.1745 8.65915 21.1896 8.57295 21.1896H7.92467V19.4689H8.45484C8.63545 19.4689 8.7807 19.4974 8.89105 19.5543C9.00096 19.6112 9.08631 19.6819 9.14751 19.7664C9.20829 19.8508 9.24838 19.9392 9.2682 20.0314C9.2876 20.1237 9.29751 20.2052 9.29751 20.2758C9.29751 20.453 9.27596 20.6013 9.23286 20.7211Z" fill="black"/>
<path d="M13.7732 19.5689C13.5905 19.3767 13.3607 19.222 13.0836 19.1064C12.8064 18.9909 12.4853 18.9327 12.1202 18.9327H10.812V23.2758H12.456C12.5107 23.2758 12.5952 23.2689 12.7094 23.2552C12.8232 23.2414 12.9491 23.2103 13.0866 23.1608C13.2241 23.1116 13.3663 23.0379 13.5137 22.9396C13.6611 22.8414 13.7935 22.7069 13.9116 22.5358C14.0297 22.3646 14.1267 22.1526 14.2034 21.8991C14.2801 21.6457 14.3185 21.3401 14.3185 20.9827C14.3185 20.7233 14.2732 20.4707 14.1831 20.2254C14.0922 19.9806 13.956 19.7616 13.7732 19.5689ZM13.2577 22.2974C13.0456 22.6039 12.6999 22.7569 12.2206 22.7569H11.5193V19.4685H11.9318C12.2698 19.4685 12.5448 19.5129 12.7568 19.6013C12.9689 19.6896 13.137 19.8056 13.2607 19.9491C13.3844 20.0927 13.4676 20.2526 13.5111 20.4293C13.5543 20.606 13.5758 20.7849 13.5758 20.9655C13.5758 21.547 13.4698 21.9914 13.2577 22.2974Z" fill="black"/>
<path d="M15.344 23.2758H16.063V21.3194H17.878V20.8362H16.063V19.4689H18.0604V18.9327H15.344V23.2758Z" fill="black"/>
<path d="M16.5639 9.897C16.1677 9.897 15.6815 9.94872 15.1165 10.0513C14.3277 9.21424 13.5044 7.99183 12.9233 6.79183C13.4996 4.36553 13.2113 4.022 13.0841 3.85993C12.9488 3.68752 12.7578 3.40778 12.5406 3.40778C12.4496 3.40778 12.2014 3.44916 12.1027 3.48191C11.8544 3.56467 11.7208 3.75605 11.6139 4.00562C11.3091 4.71812 11.7272 5.93278 12.1574 6.86898C11.7897 8.33148 11.1729 10.0819 10.5246 11.5026C8.89102 12.2509 8.02335 12.9858 7.9449 13.6871C7.91645 13.9423 7.9768 14.3168 8.4255 14.6535C8.54835 14.7453 8.69231 14.794 8.84231 14.794C9.21947 14.794 9.6005 14.5052 10.0415 13.8858C10.363 13.4341 10.7083 12.8181 11.0686 12.0535C12.2229 11.5487 13.6509 11.0927 14.8738 10.8371C15.5548 11.491 16.1647 11.822 16.6889 11.822C17.0751 11.822 17.4061 11.6444 17.6458 11.3086C17.8953 10.9591 17.9522 10.6461 17.8139 10.3776C17.6479 10.0548 17.2389 9.897 16.5639 9.897ZM8.8518 14.0664C8.65007 13.9117 8.66171 13.8073 8.66602 13.7681C8.69275 13.5285 9.06818 13.103 9.9893 12.5854C9.29102 13.875 8.91602 14.0461 8.8518 14.0664ZM12.3863 4.18622C12.4048 4.18019 12.8367 4.66079 12.4277 5.57243C11.813 4.94355 12.344 4.20045 12.3863 4.18622ZM11.4953 11.094C11.9328 10.0513 12.3397 8.90002 12.6479 7.83364C13.132 8.70347 13.7134 9.54743 14.2953 10.2233C13.3755 10.4392 12.3962 10.744 11.4953 11.094ZM17.0561 10.8875C16.9234 11.0733 16.6354 11.0776 16.5346 11.0776C16.3048 11.0776 16.219 10.941 15.8677 10.6707C16.1574 10.6336 16.4307 10.6242 16.6484 10.6242C17.0315 10.6242 17.1018 10.6806 17.1548 10.7091C17.1453 10.7397 17.1203 10.7974 17.0561 10.8875Z" fill="black"/>
</svg>
