<svg width="28" height="28" viewBox="0 0 28 28" fill="none" xmlns="http://www.w3.org/2000/svg">
<path d="M27.9892 13.701C28.3087 21.362 21.8125 27.9965 14.0324 28.0004C6.33489 28.0034 -0.0107887 21.5762 1.37717e-05 13.9691C0.0108162 6.31044 6.50696 0.0404329 13.9375 -0.00041153C21.6158 -0.0420266 28.0347 6.45532 27.9892 13.7002V13.701ZM5.23072 9.39612C5.26159 9.62885 5.26776 9.98258 5.35958 10.3124C5.78396 11.8368 6.24384 13.365 7.10727 14.6982C9.59878 18.5437 12.8488 21.446 17.3681 22.7345C18.8519 23.1576 20.2215 23.0042 21.5671 22.2567C22.5455 21.7126 23.1551 20.9651 23.3179 19.8369C23.4506 18.9159 23.4128 18.788 22.5949 18.3364C21.74 17.8648 20.8696 17.417 20.0494 16.8907C18.9985 16.2164 18.7778 16.2179 17.956 17.175C17.8303 17.3215 17.7176 17.4779 17.5918 17.6243C17.3658 17.8871 17.1335 18.1445 16.9051 18.405C16.6173 18.7333 16.284 18.7888 15.9059 18.5722C15.5154 18.3487 15.125 18.126 14.7369 17.8995C12.4923 16.5863 10.8951 14.6781 9.69677 12.407C9.43443 11.9107 9.46683 11.7111 9.87347 11.3158C10.1397 11.0569 10.4367 10.8295 10.7176 10.5845C10.9691 10.3648 11.2315 10.156 11.4645 9.91784C11.9414 9.43079 11.9491 9.16569 11.598 8.58847C11.1312 7.82091 10.6813 7.04332 10.2269 6.26805C10.0193 5.91355 9.83257 5.54595 9.60649 5.20378C9.52316 5.07663 9.35572 4.92173 9.22609 4.92096C8.34183 4.91556 7.43211 4.98646 6.78242 5.64845C5.80711 6.64259 5.2693 7.86406 5.23072 9.39534V9.39612Z" fill="#FF3C2F"/>
</svg>
