<svg width="85" height="85" viewBox="0 0 85 85" fill="none" xmlns="http://www.w3.org/2000/svg">
<path d="M17 8.5H8.5V17H17V8.5Z" fill="black"/>
<path d="M59.5 0V4.25H55.25V8.5H59.5V25.5H63.75V29.75H59.5V34H63.75H68V25.5H80.75V29.75H85V25.5V0H59.5ZM80.75 21.25H63.75V4.25H80.75V21.25Z" fill="black"/>
<path d="M76.5 8.5H68V17H76.5V8.5Z" fill="black"/>
<path d="M17 68H8.5V76.5H17V68Z" fill="black"/>
<path d="M63.75 59.5H59.5V63.75H63.75V59.5Z" fill="black"/>
<path d="M42.5 80.75H38.25V85H42.5V80.75Z" fill="black"/>
<path d="M46.75 63.75H42.5V68H46.75V63.75Z" fill="black"/>
<path d="M46.75 72.25H42.5V76.5H46.75V72.25Z" fill="black"/>
<path d="M85 51H80.75V55.25H85V51Z" fill="black"/>
<path d="M4.25 51H0V55.25H4.25V51Z" fill="black"/>
<path d="M4.25 29.75H0V34H4.25V29.75Z" fill="black"/>
<path d="M46.75 4.25V8.5H38.25V12.75H51V8.5V4.25H46.75Z" fill="black"/>
<path d="M80.75 34V38.25H72.25V42.5H59.5V38.25H55.25V42.5H46.75V46.75H59.5V51H51H46.75V46.75H42.5V51H38.25V46.75H34V51H29.75V55.25H38.25V59.5H42.5V55.25H51V59.5H46.75V63.75H51V72.25H55.25V76.5H59.5V72.25H72.25V63.75H76.5V59.5H72.25V51H63.75V46.75H72.25V51H76.5V46.75H80.75V42.5H85V38.25V34H80.75ZM68 55.25V68H55.25V55.25H68Z" fill="black"/>
<path d="M55.25 25.5H51V29.75H46.75V34V38.25H51V34H55.25V29.75H59.5V25.5H55.25Z" fill="black"/>
<path d="M55.25 80.75H46.75V85H55.25V80.75Z" fill="black"/>
<path d="M38.25 4.25H34V8.5H38.25V4.25Z" fill="black"/>
<path d="M72.25 34H68V38.25H72.25V34Z" fill="black"/>
<path d="M76.5 29.75H72.25V34H76.5V29.75Z" fill="black"/>
<path d="M21.25 51H17V55.25H21.25V51Z" fill="black"/>
<path d="M25.5 80.75V63.75H29.75V59.5V55.25H25.5V59.5H12.75V55.25H8.5H4.25V59.5H0V85H25.5H34V80.75H25.5ZM21.25 80.75H4.25V63.75H21.25V80.75Z" fill="black"/>
<path d="M29.75 25.5H25.5V29.75H29.75V25.5Z" fill="black"/>
<path d="M29.75 0H25.5H0V25.5H4.25V29.75H8.5V25.5H12.75V29.75H17V25.5H25.5V17H29.75V12.75H25.5V4.25H29.75H34V0H29.75ZM21.25 21.25H4.25V4.25H21.25V21.25Z" fill="black"/>
<path d="M55.25 12.75H51V17H55.25V12.75Z" fill="black"/>
<path d="M46.75 0H42.5V4.25H46.75V0Z" fill="black"/>
<path d="M51 25.5V21.25H46.75V17H42.5V21.25H34V17H29.75V21.25V25.5H34V34H21.25V29.75H17V34H4.25V38.25H12.75V42.5H0V46.75H12.75V51H17V46.75H21.25V51H25.5V46.75H34V42.5H29.75V38.25H34H38.25V42.5H42.5H46.75V38.25H42.5V34H38.25V25.5H51ZM25.5 42.5H17V38.25H25.5V42.5Z" fill="black"/>
<path d="M38.25 68V63.75V59.5H34V63.75H29.75V68H34V72.25H29.75V76.5H38.25V72.25H42.5V68H38.25Z" fill="black"/>
<path d="M76.5 76.5V72.25H72.25V76.5H59.5V80.75H68V85H72.25V80.75H80.75V85H85V80.75V76.5H76.5Z" fill="black"/>
<path d="M80.75 59.5V63.75H76.5V68H85V63.75V59.5H80.75Z" fill="black"/>
</svg>
