<svg width="86" height="79" viewBox="0 0 86 79" fill="none" xmlns="http://www.w3.org/2000/svg">
<path d="M42.9682 0C19.1213 0 0.11562 17.5556 0.11562 39.2313C0.11562 46.0385 2.08791 52.4875 5.3153 58.22C5.8532 59.1156 6.0325 60.1905 5.6739 61.2653L0.11562 76.4921C-0.422278 77.9252 1.01212 79.1791 2.44651 78.8209L17.8663 72.9093C18.7628 72.551 19.8385 72.7302 20.9143 73.2676C27.3691 76.8503 35.079 79 43.3268 79C66.815 78.8209 86 61.2653 86 39.5896C85.8207 17.5556 66.6357 0 42.9682 0ZM25.7554 45.8594C25.2175 46.7551 24.6796 47.6508 23.9624 48.1882C23.2452 48.7256 22.3487 49.263 21.2729 49.6213C20.3764 49.9796 19.3006 49.9796 18.2249 49.9796C16.7905 49.9796 15.5354 49.8005 14.2803 49.263C13.0252 48.7256 11.7701 48.0091 10.8736 46.9342L10.515 46.576C10.3357 46.3968 10.515 46.0386 10.8736 45.6803L13.7424 42.9932C14.101 42.6349 14.4596 42.6349 14.6389 42.8141C14.8182 42.9932 14.9975 43.3515 14.9975 43.3515C15.3561 43.8889 15.894 44.2472 16.4319 44.6054C17.3284 45.1429 18.2249 45.1429 19.3006 44.9637C19.6592 44.9637 19.8385 44.7846 20.1971 44.6054C20.3764 44.4263 20.5557 44.2472 20.735 44.068C20.9143 43.8889 20.9143 43.5306 20.9143 43.3515C20.9143 42.6349 20.735 42.4558 20.5557 42.2766C20.1971 41.9184 19.6592 41.5601 18.9421 41.381C18.2249 41.2018 17.5077 40.8435 16.6112 40.6644C15.7147 40.3061 14.8182 39.9478 14.101 39.5896C13.2045 39.0522 12.6666 38.3356 12.1287 37.619C11.5908 36.7234 11.2322 35.6485 11.2322 34.2154C11.2322 32.9615 11.4115 31.8866 11.9494 30.9909C12.4873 30.0952 13.0252 29.3787 13.9217 28.8413C14.6389 28.3039 15.5354 27.7664 16.6112 27.5873C18.7628 27.0499 20.9143 27.0499 23.0659 27.7664C24.1417 28.1247 25.2175 28.8413 25.7554 29.1995L26.2933 29.5578C26.6519 29.737 26.4726 30.2744 26.114 30.6327L23.4245 33.3197C23.0659 33.678 22.528 33.678 22.1694 33.3197C21.8108 33.1406 21.6315 32.7823 21.4522 32.7823C20.5557 32.2449 19.3006 32.0658 18.2249 32.2449C17.8663 32.2449 17.687 32.424 17.5077 32.6032C17.3284 32.7823 17.1491 32.9615 16.9698 33.1406C16.7905 33.3197 16.7905 33.4989 16.7905 33.8571C16.7905 34.3946 16.9698 34.5737 17.1491 34.7528C17.5077 35.1111 18.0456 35.2902 18.7628 35.6485C19.4799 35.8277 20.1971 36.1859 21.0936 36.3651C21.9901 36.7234 22.8866 37.0816 23.6038 37.4399C24.5003 37.9773 25.0382 38.6939 25.5761 39.4104C26.114 40.3061 26.4726 41.381 26.4726 42.8141C26.4726 43.8889 26.2933 44.9637 25.7554 45.8594ZM55.5191 48.3673C55.5191 49.4422 54.6226 50.1587 53.5468 50.1587H51.7538C50.678 50.1587 50.1401 49.4422 50.1401 48.3673V37.7982C50.1401 36.7234 48.7057 36.5442 48.3471 37.4399L45.2991 45.5011C45.1198 46.2177 44.4026 46.576 43.6854 46.576H42.4303C41.7131 46.576 40.9959 46.0385 40.8166 45.5011L37.5892 37.4399C37.2306 36.5442 35.7962 36.7234 35.7962 37.7982V48.3673C35.7962 49.4422 34.8997 50.1587 33.8239 50.1587H32.0309C30.9551 50.1587 30.4172 49.4422 30.4172 48.3673V28.6621C30.4172 27.5873 31.1344 26.8707 32.0309 26.8707H36.6927C37.4099 26.8707 38.1271 27.4082 38.3064 27.9456L41.8924 37.2608C42.251 37.9773 43.3268 37.9773 43.5061 37.2608L47.092 27.9456C47.2713 27.229 47.9885 26.8707 48.7057 26.8707H53.5468C54.6226 26.8707 55.5191 27.5873 55.5191 28.6621V48.3673ZM74.3455 46.0386C73.8076 46.9342 73.2698 47.8299 72.3733 48.3673C71.6561 48.9048 70.7596 49.4422 69.6838 49.8005C68.608 50.1587 67.7115 50.1587 66.6357 50.1587C65.2013 50.1587 63.9462 49.9796 62.6911 49.4422C61.436 48.9048 60.1809 48.1882 59.2844 47.1134L58.9258 46.7551C58.7465 46.576 58.9258 46.2177 59.2844 45.8594L62.1532 43.1723C62.5118 42.8141 62.8704 42.8141 63.0497 42.9932C63.229 43.1723 63.4083 43.5306 63.4083 43.5306C63.7669 44.068 64.3048 44.4263 64.8427 44.7846C65.7392 45.322 66.815 45.322 67.7115 45.1429C68.0701 44.9637 68.4287 44.9637 68.608 44.7846C68.7873 44.6054 68.9666 44.4263 69.1459 44.2472C69.3252 44.068 69.3252 43.7098 69.3252 43.5306C69.3252 42.8141 69.1459 42.6349 68.9666 42.4558C68.608 42.0975 68.0701 41.7392 67.3529 41.5601C66.6357 41.381 65.9185 41.0227 65.022 40.8435C64.1255 40.4853 63.229 40.127 62.5118 39.7687C61.6153 39.2313 60.8981 38.5147 60.3602 37.7982C59.8223 36.9025 59.4637 35.8277 59.4637 34.3946C59.4637 33.1406 59.643 32.0658 60.1809 31.1701C60.7188 30.2744 61.2567 29.5578 62.1532 29.0204C62.8704 28.483 63.9462 27.9456 64.8427 27.7664C66.9943 27.229 69.1459 27.229 71.2975 27.9456C72.3733 28.3039 73.449 29.0204 73.9869 29.5578L74.5248 30.0952C74.8834 30.2744 74.7041 30.8118 74.3455 31.1701L71.6561 33.8571C71.2975 34.2154 70.7596 34.2154 70.401 33.8571C70.0424 33.678 69.8631 33.3197 69.6838 33.3197C68.7873 32.7823 67.5322 32.6032 66.4564 32.7823C66.0978 32.7823 65.9185 32.9615 65.7392 33.1406C65.5599 33.3197 65.3806 33.4989 65.2013 33.678C65.022 33.8571 65.022 34.2154 65.022 34.3946C65.022 34.932 65.2013 35.1111 65.3806 35.2903C65.7392 35.6485 66.2771 35.8277 66.9943 36.1859C67.7115 36.3651 68.4287 36.7234 69.3252 36.9025C70.2217 37.2608 71.1182 37.619 71.8354 37.9773C72.7318 38.5147 73.2697 39.2313 73.9869 39.9478C74.5248 40.8435 74.8834 41.9184 74.8834 43.3515C75.0627 43.8889 74.8834 45.1429 74.3455 46.0386Z" fill="white"/>
</svg>
