<svg width="213" height="209" viewBox="0 0 213 209" fill="none" xmlns="http://www.w3.org/2000/svg">
<ellipse cx="106.5" cy="90.6327" rx="53.25" ry="53.4882" stroke="black" stroke-width="3" stroke-miterlimit="5.63198" stroke-linecap="round" stroke-linejoin="bevel" stroke-dasharray="15 15"/>
<rect x="19.7361" y="150.073" width="8.84722" height="47.5261" fill="#B3B3B3" stroke="#292929" stroke-width="2"/>
<rect x="48.8264" y="150.073" width="8.84722" height="47.5261" fill="#B3B3B3" stroke="#292929" stroke-width="2"/>
<rect x="77.9167" y="150.073" width="8.84722" height="47.5261" fill="#B3B3B3" stroke="#292929" stroke-width="2"/>
<path d="M53.25 104.5L99.3659 139.044H7.13415L53.25 104.5Z" fill="#6BF1D1" stroke="#292929" stroke-width="4" stroke-linejoin="round"/>
<rect x="0.5" y="-0.5" width="12.3125" height="2.46683" transform="matrix(1 0 0 -1 17.257 148.073)" fill="white" stroke="#292929"/>
<rect x="1" y="-1" width="93.1597" height="4.93365" transform="matrix(1 0 0 -1 5.42358 207)" fill="#6BF1D1" stroke="#292929" stroke-width="2"/>
<rect x="1" y="-1" width="93.1597" height="4.93364" rx="1" transform="matrix(1 0 0 -1 5.42358 143.607)" fill="white" stroke="#292929" stroke-width="2" stroke-linejoin="round"/>
<rect x="0.5" y="-0.5" width="12.3125" height="2.46683" transform="matrix(1 0 0 -1 46.3472 148.073)" fill="white" stroke="#292929"/>
<rect x="0.5" y="-0.5" width="12.3125" height="2.46683" transform="matrix(1 0 0 -1 75.4375 148.073)" fill="white" stroke="#292929"/>
<rect x="0.866703" y="-0.866703" width="11.5791" height="1.73341" transform="matrix(1 0 0 -1 75.4375 200.333)" fill="white" stroke="#292929" stroke-width="1.73341"/>
<rect x="0.866703" y="-0.866703" width="11.5791" height="1.73341" transform="matrix(1 0 0 -1 46.3472 200.333)" fill="white" stroke="#292929" stroke-width="1.73341"/>
<rect x="0.866703" y="-0.866703" width="11.5791" height="1.73341" transform="matrix(1 0 0 -1 17.257 200.333)" fill="white" stroke="#292929" stroke-width="1.73341"/>
<rect x="126.236" y="149.083" width="8.84721" height="47.5261" fill="#B3B3B3" stroke="#292929" stroke-width="2"/>
<rect x="155.326" y="149.083" width="8.84723" height="47.5261" fill="#B3B3B3" stroke="#292929" stroke-width="2"/>
<rect x="184.417" y="149.083" width="8.84721" height="47.5261" fill="#B3B3B3" stroke="#292929" stroke-width="2"/>
<path d="M159.75 103.51L205.866 138.054H113.634L159.75 103.51Z" fill="#FF9B21" stroke="#292929" stroke-width="4" stroke-linejoin="round"/>
<rect x="0.5" y="-0.5" width="12.3125" height="2.46681" transform="matrix(1 0 0 -1 123.757 147.083)" fill="white" stroke="#292929"/>
<rect x="1" y="-1" width="93.1597" height="4.93364" transform="matrix(1 0 0 -1 111.924 206.01)" fill="#FF9B21" stroke="#292929" stroke-width="2"/>
<rect x="1" y="-1" width="93.1597" height="4.93365" rx="1" transform="matrix(1 0 0 -1 111.924 142.616)" fill="white" stroke="#292929" stroke-width="2" stroke-linejoin="round"/>
<rect x="0.5" y="-0.5" width="12.3125" height="2.46681" transform="matrix(1 0 0 -1 152.847 147.083)" fill="white" stroke="#292929"/>
<rect x="0.5" y="-0.5" width="12.3125" height="2.46681" transform="matrix(1 0 0 -1 181.938 147.083)" fill="white" stroke="#292929"/>
<rect x="0.866707" y="-0.866707" width="11.5791" height="1.73341" transform="matrix(1 0 0 -1 181.938 199.343)" fill="white" stroke="#292929" stroke-width="1.73341"/>
<rect x="0.866707" y="-0.866707" width="11.5791" height="1.73341" transform="matrix(1 0 0 -1 152.847 199.343)" fill="white" stroke="#292929" stroke-width="1.73341"/>
<rect x="0.866707" y="-0.866707" width="11.5791" height="1.73341" transform="matrix(1 0 0 -1 123.757 199.343)" fill="white" stroke="#292929" stroke-width="1.73341"/>
<path d="M134.583 26.9917C134.583 41.0767 123.218 52.4834 109.212 52.4834C95.2058 52.4834 83.8403 41.0767 83.8403 26.9917C83.8403 12.9067 95.2058 1.5 109.212 1.5C123.218 1.5 134.583 12.9067 134.583 26.9917Z" fill="#2D9CDB" stroke="black" stroke-width="3"/>
<path d="M127.227 26.5799C127.227 18.4356 121.748 11.333 113.893 9.30719C113.142 9.11035 112.374 9.56964 112.186 10.3242C111.991 11.0787 112.448 11.8497 113.199 12.0383C119.805 13.7361 124.418 19.7233 124.418 26.5799C124.418 32.6245 120.833 37.9802 115.469 40.334L116.767 37.2994C117.069 36.5859 116.743 35.7575 116.032 35.4458C115.322 35.1424 114.497 35.4704 114.187 36.184L111.656 42.1056C111.354 42.8191 111.68 43.6475 112.391 43.9592L118.286 46.5017C119.168 46.8133 119.903 46.2966 120.131 45.7635C120.433 45.05 120.107 44.2216 119.396 43.9099L116.832 42.8027C123.079 39.9649 127.227 33.6661 127.227 26.5799Z" fill="#FFFCFC"/>
<path d="M105.736 41.1213C99.1304 39.4154 94.5171 33.4364 94.5171 26.5798C94.5171 20.6172 98.0036 15.3272 103.246 12.9241L102.029 15.7618C101.727 16.4754 102.037 17.3366 102.764 17.6154C103.613 17.9353 104.332 17.5498 104.609 16.8773L107.14 10.9475C107.385 10.3734 107.377 9.51219 106.406 9.09391L100.51 6.5514C99.8 6.24793 98.9753 6.576 98.665 7.28954C98.3629 8.00309 98.6895 8.83145 99.3999 9.14312L102.143 10.3242C95.8725 13.1701 91.7083 19.4772 91.7083 26.5798C91.7083 34.7241 97.1953 41.8185 105.042 43.8525C105.989 44.0985 106.585 43.4752 106.748 42.8355C106.936 42.0809 106.487 41.3182 105.736 41.1213Z" fill="#FFFCFC"/>
<path d="M112.774 31.8945C113.493 31.1399 113.852 30.1885 113.852 29.0567C113.852 28.54 113.762 28.0643 113.591 27.6214C113.419 27.1785 113.174 26.8012 112.856 26.4732C112.538 26.1533 112.121 25.8826 111.615 25.653C111.345 25.5382 110.807 25.3741 109.982 25.1691V20.4614C110.513 20.568 110.929 20.7976 111.239 21.1421C111.541 21.4866 111.746 21.9787 111.844 22.6184L113.526 22.3641C113.379 21.3307 112.954 20.5106 112.244 19.92C111.688 19.4526 110.937 19.1737 109.99 19.0835V18.3043H109.027V19.0835C107.949 19.1901 107.132 19.4936 106.585 19.9775C105.761 20.6992 105.352 21.6424 105.352 22.807C105.352 23.4632 105.491 24.0455 105.777 24.5622C106.054 25.0789 106.455 25.4808 106.977 25.7678C107.679 26.1615 108.365 26.424 109.035 26.547V31.755C108.398 31.6894 107.843 31.3613 107.385 30.779C107.067 30.3689 106.838 29.721 106.716 28.8434L105.075 29.1551C105.132 29.9999 105.352 30.7216 105.72 31.3121C106.087 31.9027 106.528 32.3291 107.042 32.5916C107.549 32.854 108.218 33.0345 109.027 33.1411V34.7732H109.99V33.1165C111.133 33.0591 112.064 32.649 112.774 31.8945ZM109.035 24.9641C108.292 24.7426 107.769 24.4392 107.459 24.0619C107.149 23.6846 106.993 23.2171 106.993 22.6594C106.993 22.0935 107.173 21.6096 107.541 21.1995C107.908 20.7894 108.406 20.5352 109.035 20.4367V24.9641ZM111.558 30.9185C111.141 31.3942 110.619 31.6648 109.99 31.7468V26.7684C110.864 27.0555 111.452 27.3753 111.746 27.7362C112.04 28.0971 112.186 28.5728 112.186 29.1715C112.178 29.8604 111.974 30.451 111.558 30.9185Z" fill="#FFFCFC"/>
</svg>
