<svg width="73" height="22" viewBox="0 0 73 22" fill="none" xmlns="http://www.w3.org/2000/svg">
<path d="M52.6472 1.54339C51.4907 1.12546 49.6886 0.681763 47.4473 0.681763C41.7094 0.681763 37.6601 3.4527 37.6302 7.42304C37.5943 10.3428 40.5111 11.9859 42.7136 12.9649C44.9758 13.9668 45.7319 14.5966 45.7259 15.4982C45.711 16.8637 43.9179 17.482 42.2533 17.482C39.9642 17.482 38.709 17.1757 36.7815 16.4085L36.0672 16.0908L35.2574 20.6651C36.65 21.2233 39.1603 21.7014 41.7573 21.7386C47.8567 21.7386 51.8433 18.9877 51.8911 14.7569C51.9389 12.4296 50.367 10.6634 47.0468 9.20926C45.0326 8.26462 43.7775 7.632 43.7775 6.67305C43.7775 5.82574 44.8503 4.92118 47.0916 4.92118C49.0192 4.89256 50.367 5.29045 51.4399 5.70265L51.9778 5.93452L52.7876 1.51476L52.6472 1.54339ZM67.5387 1.05676H63.056C61.6604 1.05676 60.6174 1.4203 60.0048 2.74851L51.3831 21.4523H57.4825L58.7018 18.3894L66.1431 18.3951C66.3254 19.1108 66.8603 21.4523 66.8603 21.4523H72.2365L67.5387 1.05676ZM29.382 0.885003H35.1886L31.5576 21.292H25.7481L29.382 0.879278V0.885003ZM14.6221 12.1319L15.2257 14.9658L20.9068 1.05676H27.06L17.9123 21.4237H11.7741L6.75345 4.17406C6.64885 3.87922 6.52035 3.67884 6.21553 3.49564C4.51808 2.64546 2.62041 1.95273 0.51355 1.47182L0.588261 1.04244H9.94512C11.2122 1.08824 12.2343 1.47182 12.5839 2.77142L14.6221 12.1405V12.1319ZM60.3694 14.213L62.6854 8.50507C62.6555 8.56233 63.1636 7.32571 63.4564 6.55855L63.8539 8.31901L65.1957 14.2072H60.3694V14.213Z" fill="white"/>
</svg>
