<svg width="23" height="13" viewBox="0 0 23 13" fill="none" xmlns="http://www.w3.org/2000/svg">
<path d="M10.3367 6.5773L10.2142 7.59379H10.9814L11.1039 6.5773H10.3367ZM10.3367 6.5773L10.2142 7.59379H10.9814L11.1039 6.5773H10.3367ZM10.3367 6.5773L10.2142 7.59379H10.9814L11.1039 6.5773H10.3367ZM10.3367 6.5773L10.2142 7.59379H10.9814L11.1039 6.5773H10.3367ZM10.3367 6.5773L10.2142 7.59379H10.9814L11.1039 6.5773H10.3367ZM10.3367 6.5773L10.2142 7.59379H10.9814L11.1039 6.5773H10.3367ZM10.3367 6.5773L10.2142 7.59379H10.9814L11.1039 6.5773H10.3367ZM10.3367 6.5773L10.2142 7.59379H10.9814L11.1039 6.5773H10.3367ZM21.6767 8.90648C21.5542 8.83916 21.4382 8.77184 21.3092 8.71126C20.007 8.11213 19.4719 6.55038 20.1424 5.29155C20.4131 4.77994 20.8322 4.42989 21.335 4.18755C21.825 3.95194 22.1473 3.56823 22.1731 2.99603C22.2053 2.2892 22.1924 1.57564 22.1667 0.862079C22.1667 0.687055 22.0571 0.498567 21.9475 0.357201C21.7089 0.0542737 21.3608 0.0475426 21.0191 0.0475426C20.2068 0.0475426 19.3945 0.0475426 18.5822 0.0475426C16.2872 0.0340792 13.9921 0.0273468 11.697 0.0206151C8.60899 0.0138834 5.51452 0.00715253 2.42004 0.000420812C1.91074 0.000420812 1.395 -0.00631141 0.885699 0.0340789C0.350613 0.0744691 0.0411655 0.444714 0.0347187 1.00345C0.0282719 1.66315 0.0347184 2.32959 0.0218248 2.99603C0.00893112 3.50091 0.221677 3.8375 0.653614 4.05964C0.975955 4.2212 1.27896 4.40969 1.59485 4.58472C2.52319 5.46657 2.59411 7.11584 1.73023 8.04482C1.46591 8.32755 1.16291 8.53623 0.814784 8.69779C0.402188 8.88628 0.0411652 9.15555 0.0218248 9.68062C-0.00396252 10.3673 -0.0104093 11.0606 0.0218248 11.7473C0.0282716 11.9694 0.150761 12.2185 0.286144 12.407C0.563358 12.8041 1.00174 12.8243 1.42723 12.8311C3.213 12.8311 5.00522 12.8311 6.79099 12.8311C9.07961 12.8378 11.3747 12.8378 13.6697 12.8445C16.1518 12.8445 18.6402 12.8647 21.1223 12.8647C21.7412 12.8647 22.1151 12.5012 22.1473 11.855C22.1796 11.1751 22.1796 10.4952 22.1731 9.81526C22.1731 9.42482 22.0184 9.1017 21.6767 8.89975V8.90648ZM13.4183 6.5773H12.3417L12.2192 7.59379H13.1604V8.8055H12.0774L11.942 9.9095H10.7042L10.8396 8.8055H10.0724L9.93704 9.9095H8.69925L8.83463 8.8055H7.89984V7.59379H8.97646L9.09895 6.5773H8.15771V5.3656H9.24078L9.37616 4.2616H10.614L10.4786 5.3656H11.2457L11.3811 4.2616H12.6189L12.4835 5.3656H13.4183V6.5773ZM10.2142 7.59379H10.9814L11.1039 6.5773H10.3367L10.2142 7.59379ZM10.3367 6.5773L10.2142 7.59379H10.9814L11.1039 6.5773H10.3367ZM10.3367 6.5773L10.2142 7.59379H10.9814L11.1039 6.5773H10.3367ZM10.3367 6.5773L10.2142 7.59379H10.9814L11.1039 6.5773H10.3367ZM10.3367 6.5773L10.2142 7.59379H10.9814L11.1039 6.5773H10.3367ZM10.3367 6.5773L10.2142 7.59379H10.9814L11.1039 6.5773H10.3367ZM10.3367 6.5773L10.2142 7.59379H10.9814L11.1039 6.5773H10.3367ZM10.3367 6.5773L10.2142 7.59379H10.9814L11.1039 6.5773H10.3367ZM10.3367 6.5773L10.2142 7.59379H10.9814L11.1039 6.5773H10.3367Z" fill="#FF3C2F"/>
</svg>
