<svg width="54" height="54" viewBox="0 0 54 54" fill="none" xmlns="http://www.w3.org/2000/svg">
<path d="M27 54C41.9117 54 54 41.9117 54 27C54 12.0883 41.9117 0 27 0C12.0883 0 0 12.0883 0 27C0 41.9117 12.0883 54 27 54Z" fill="#FF3C2F"/>
<path d="M25.818 26.766L25.628 28.276H26.818L27.008 26.766H25.818ZM25.818 26.766L25.628 28.276H26.818L27.008 26.766H25.818ZM25.818 26.766L25.628 28.276H26.818L27.008 26.766H25.818ZM25.818 26.766L25.628 28.276H26.818L27.008 26.766H25.818ZM25.818 26.766L25.628 28.276H26.818L27.008 26.766H25.818ZM25.818 26.766L25.628 28.276H26.818L27.008 26.766H25.818ZM25.818 26.766L25.628 28.276H26.818L27.008 26.766H25.818ZM25.818 26.766L25.628 28.276H26.818L27.008 26.766H25.818ZM43.408 30.226C43.218 30.126 43.038 30.026 42.838 29.936C40.818 29.046 39.988 26.726 41.028 24.856C41.448 24.096 42.098 23.576 42.878 23.216C43.638 22.866 44.138 22.296 44.178 21.446C44.228 20.396 44.208 19.336 44.168 18.276C44.168 18.016 43.998 17.736 43.828 17.526C43.458 17.076 42.918 17.066 42.388 17.066C41.128 17.066 39.868 17.066 38.608 17.066C35.048 17.046 31.488 17.036 27.928 17.026C23.138 17.016 18.338 17.006 13.538 16.996C12.748 16.996 11.948 16.986 11.158 17.046C10.328 17.106 9.84803 17.656 9.83803 18.486C9.82803 19.466 9.83803 20.456 9.81803 21.446C9.79803 22.196 10.128 22.696 10.798 23.026C11.298 23.266 11.768 23.546 12.258 23.806C13.698 25.116 13.808 27.566 12.468 28.946C12.058 29.366 11.588 29.676 11.048 29.916C10.408 30.196 9.84803 30.596 9.81803 31.376C9.77803 32.396 9.76803 33.426 9.81803 34.446C9.82803 34.776 10.018 35.146 10.228 35.426C10.658 36.016 11.338 36.046 11.998 36.056C14.768 36.056 17.548 36.056 20.318 36.056C23.868 36.066 27.428 36.066 30.988 36.076C34.838 36.076 38.698 36.106 42.548 36.106C43.508 36.106 44.088 35.566 44.138 34.606C44.188 33.596 44.188 32.586 44.178 31.576C44.178 30.996 43.938 30.516 43.408 30.216V30.226ZM30.598 26.766H28.928L28.738 28.276H30.198V30.076H28.518L28.308 31.716H26.388L26.598 30.076H25.408L25.198 31.716H23.278L23.488 30.076H22.038V28.276H23.708L23.898 26.766H22.438V24.966H24.118L24.328 23.326H26.248L26.038 24.966H27.228L27.438 23.326H29.358L29.148 24.966H30.598V26.766ZM25.628 28.276H26.818L27.008 26.766H25.818L25.628 28.276ZM25.818 26.766L25.628 28.276H26.818L27.008 26.766H25.818ZM25.818 26.766L25.628 28.276H26.818L27.008 26.766H25.818ZM25.818 26.766L25.628 28.276H26.818L27.008 26.766H25.818ZM25.818 26.766L25.628 28.276H26.818L27.008 26.766H25.818ZM25.818 26.766L25.628 28.276H26.818L27.008 26.766H25.818ZM25.818 26.766L25.628 28.276H26.818L27.008 26.766H25.818ZM25.818 26.766L25.628 28.276H26.818L27.008 26.766H25.818ZM25.818 26.766L25.628 28.276H26.818L27.008 26.766H25.818Z" fill="white"/>
</svg>
