<svg width="36" height="20" viewBox="0 0 36 20" fill="none" xmlns="http://www.w3.org/2000/svg">
<path d="M16.82 10.2101L16.63 11.7201H17.82L18.01 10.2101H16.82ZM16.82 10.2101L16.63 11.7201H17.82L18.01 10.2101H16.82ZM16.82 10.2101L16.63 11.7201H17.82L18.01 10.2101H16.82ZM16.82 10.2101L16.63 11.7201H17.82L18.01 10.2101H16.82ZM16.82 10.2101L16.63 11.7201H17.82L18.01 10.2101H16.82ZM16.82 10.2101L16.63 11.7201H17.82L18.01 10.2101H16.82ZM16.82 10.2101L16.63 11.7201H17.82L18.01 10.2101H16.82ZM16.82 10.2101L16.63 11.7201H17.82L18.01 10.2101H16.82ZM34.41 13.6701C34.22 13.5701 34.04 13.4701 33.84 13.3801C31.82 12.4901 30.99 10.1701 32.03 8.30008C32.45 7.54008 33.1 7.02008 33.88 6.66008C34.64 6.31008 35.14 5.74008 35.18 4.89008C35.23 3.84008 35.21 2.78008 35.17 1.72008C35.17 1.46008 35 1.18008 34.83 0.970077C34.46 0.520077 33.92 0.510078 33.39 0.510078C32.13 0.510078 30.87 0.510078 29.61 0.510078C26.05 0.490078 22.49 0.480077 18.93 0.470077C14.14 0.460077 9.33999 0.450078 4.53999 0.440078C3.74999 0.440078 2.94999 0.430077 2.15999 0.490077C1.32999 0.550077 0.849987 1.10008 0.839987 1.93008C0.829987 2.91008 0.839986 3.90008 0.819986 4.89008C0.799986 5.64008 1.12999 6.14008 1.79999 6.47008C2.29999 6.71008 2.76999 6.99008 3.25999 7.25008C4.69999 8.56008 4.80999 11.0101 3.46999 12.3901C3.05999 12.8101 2.58999 13.1201 2.04999 13.3601C1.40999 13.6401 0.849986 14.0401 0.819986 14.8201C0.779986 15.8401 0.769986 16.8701 0.819986 17.8901C0.829986 18.2201 1.01999 18.5901 1.22999 18.8701C1.65999 19.4601 2.33999 19.4901 2.99999 19.5001C5.76999 19.5001 8.54999 19.5001 11.32 19.5001C14.87 19.5101 18.43 19.5101 21.99 19.5201C25.84 19.5201 29.7 19.5501 33.55 19.5501C34.51 19.5501 35.09 19.0101 35.14 18.0501C35.19 17.0401 35.19 16.0301 35.18 15.0201C35.18 14.4401 34.94 13.9601 34.41 13.6601V13.6701ZM21.6 10.2101H19.93L19.74 11.7201H21.2V13.5201H19.52L19.31 15.1601H17.39L17.6 13.5201H16.41L16.2 15.1601H14.28L14.49 13.5201H13.04V11.7201H14.71L14.9 10.2101H13.44V8.41008H15.12L15.33 6.77008H17.25L17.04 8.41008H18.23L18.44 6.77008H20.36L20.15 8.41008H21.6V10.2101ZM16.63 11.7201H17.82L18.01 10.2101H16.82L16.63 11.7201ZM16.82 10.2101L16.63 11.7201H17.82L18.01 10.2101H16.82ZM16.82 10.2101L16.63 11.7201H17.82L18.01 10.2101H16.82ZM16.82 10.2101L16.63 11.7201H17.82L18.01 10.2101H16.82ZM16.82 10.2101L16.63 11.7201H17.82L18.01 10.2101H16.82ZM16.82 10.2101L16.63 11.7201H17.82L18.01 10.2101H16.82ZM16.82 10.2101L16.63 11.7201H17.82L18.01 10.2101H16.82ZM16.82 10.2101L16.63 11.7201H17.82L18.01 10.2101H16.82ZM16.82 10.2101L16.63 11.7201H17.82L18.01 10.2101H16.82Z" fill="white"/>
</svg>
