<svg width="28" height="28" viewBox="0 0 28 28" fill="none" xmlns="http://www.w3.org/2000/svg">
<path d="M19.833 8.16666H17.4997C17.4997 7.2384 17.1309 6.34817 16.4746 5.69179C15.8182 5.03541 14.9279 4.66666 13.9997 4.66666C13.0714 4.66666 12.1812 5.03541 11.5248 5.69179C10.8684 6.34817 10.4997 7.2384 10.4997 8.16666V14H19.833C20.4518 14 21.0453 14.2458 21.4829 14.6834C21.9205 15.121 22.1663 15.7145 22.1663 16.3333V23.3333C22.1663 23.9522 21.9205 24.5457 21.4829 24.9832C21.0453 25.4208 20.4518 25.6667 19.833 25.6667H8.16634C7.5475 25.6667 6.95401 25.4208 6.51643 24.9832C6.07884 24.5457 5.83301 23.9522 5.83301 23.3333V16.3333C5.83301 15.7145 6.07884 15.121 6.51643 14.6834C6.95401 14.2458 7.5475 14 8.16634 14V8.16666C8.16634 6.61957 8.78092 5.13583 9.87489 4.04187C10.9688 2.94791 12.4526 2.33333 13.9997 2.33333C15.5468 2.33333 17.0305 2.94791 18.1245 4.04187C19.2184 5.13583 19.833 6.61957 19.833 8.16666ZM13.9997 22.1667C14.6185 22.1667 15.212 21.9208 15.6496 21.4832C16.0872 21.0457 16.333 20.4522 16.333 19.8333C16.333 19.2145 16.0872 18.621 15.6496 18.1834C15.212 17.7458 14.6185 17.5 13.9997 17.5C13.3808 17.5 12.7873 17.7458 12.3498 18.1834C11.9122 18.621 11.6663 19.2145 11.6663 19.8333C11.6663 20.4522 11.9122 21.0457 12.3498 21.4832C12.7873 21.9208 13.3808 22.1667 13.9997 22.1667Z" fill="#19B159"/>
</svg>
