<svg width="10" height="12" viewBox="0 0 10 12" fill="none" xmlns="http://www.w3.org/2000/svg">
<path d="M7.9165 3.08333H6.74984C6.74984 2.61921 6.56546 2.17409 6.23727 1.8459C5.90909 1.51771 5.46397 1.33333 4.99984 1.33333C4.53571 1.33333 4.09059 1.51771 3.7624 1.8459C3.43421 2.17409 3.24984 2.61921 3.24984 3.08333V6H7.9165C8.22592 6 8.52267 6.12292 8.74146 6.34171C8.96025 6.5605 9.08317 6.85725 9.08317 7.16667V10.6667C9.08317 10.9761 8.96025 11.2728 8.74146 11.4916C8.52267 11.7104 8.22592 11.8333 7.9165 11.8333H2.08317C1.77375 11.8333 1.47701 11.7104 1.25821 11.4916C1.03942 11.2728 0.916504 10.9761 0.916504 10.6667V7.16667C0.916504 6.85725 1.03942 6.5605 1.25821 6.34171C1.47701 6.12292 1.77375 6 2.08317 6V3.08333C2.08317 2.30979 2.39046 1.56792 2.93744 1.02094C3.48442 0.473959 4.22629 0.166668 4.99984 0.166668C5.77339 0.166668 6.51525 0.473959 7.06223 1.02094C7.60921 1.56792 7.9165 2.30979 7.9165 3.08333ZM4.99984 10.0833C5.30926 10.0833 5.606 9.96042 5.82479 9.74162C6.04359 9.52283 6.1665 9.22609 6.1665 8.91667C6.1665 8.60725 6.04359 8.3105 5.82479 8.09171C5.606 7.87292 5.30926 7.75 4.99984 7.75C4.69042 7.75 4.39367 7.87292 4.17488 8.09171C3.95609 8.3105 3.83317 8.60725 3.83317 8.91667C3.83317 9.22609 3.95609 9.52283 4.17488 9.74162C4.39367 9.96042 4.69042 10.0833 4.99984 10.0833Z" fill="#19B159"/>
</svg>
