<svg width="54" height="54" viewBox="0 0 54 54" fill="none" xmlns="http://www.w3.org/2000/svg">
<path d="M27 54C41.9117 54 54 41.9117 54 27C54 12.0883 41.9117 0 27 0C12.0883 0 0 12.0883 0 27C0 41.9117 12.0883 54 27 54Z" fill="#FF3C2F"/>
<path d="M39.02 9.06999C33.12 9.06999 27.21 9.04999 21.31 9.09999C20.73 9.09999 20.02 9.38999 19.6 9.78999C17.7 11.6 15.84 13.44 14.03 15.36C13.63 15.78 13.33 16.48 13.32 17.06C13.28 25.8 13.29 34.53 13.28 43.27C13.28 44.71 13.49 44.92 14.98 44.92C23 44.93 31 44.93 39 44.93C40.47 44.93 40.7 44.72 40.7 43.26V27.01H40.71V10.74C40.71 9.30999 40.47 9.06999 39.01 9.06999H39.02ZM19.59 13.17V15.42H17.17C18.02 14.64 18.84 13.86 19.59 13.17ZM33.92 37.41H20.07C19.36 37.41 18.78 37.2 18.81 36.41C18.83 35.66 19.42 35.52 20.07 35.52C22.38 35.54 24.69 35.53 27 35.53C29.31 35.53 31.61 35.54 33.92 35.52C34.58 35.52 35.17 35.66 35.19 36.4C35.21 37.21 34.63 37.41 33.92 37.41ZM33.82 32.06C31.55 32.05 29.28 32.06 27 32.06C24.73 32.05 22.46 32.05 20.18 32.06C19.46 32.06 18.78 31.94 18.82 31.07C18.84 30.26 19.5 30.17 20.17 30.17C24.71 30.18 29.27 30.18 33.82 30.17C34.54 30.17 35.23 30.28 35.2 31.16C35.17 31.97 34.51 32.06 33.84 32.06H33.82ZM33.91 26.71C31.57 26.7 29.23 26.71 26.88 26.71C24.53 26.71 22.34 26.7 20.06 26.71C19.4 26.72 18.82 26.57 18.8 25.82C18.79 25.04 19.37 24.82 20.08 24.82C24.7 24.83 29.31 24.83 33.93 24.82C34.65 24.82 35.21 25.06 35.19 25.84C35.16 26.59 34.57 26.72 33.91 26.71ZM33.82 21.76C31.55 21.75 29.28 21.75 27 21.75C24.72 21.75 22.46 21.75 20.18 21.76C19.46 21.76 18.78 21.65 18.82 20.77C18.84 19.99 19.49 19.86 20.17 19.86C24.71 19.87 29.27 19.87 33.82 19.86C34.55 19.86 35.22 20 35.2 20.87C35.18 21.69 34.51 21.76 33.84 21.76H33.82Z" fill="white"/>
</svg>
