<svg width="30" height="33" viewBox="0 0 30 33" fill="none" xmlns="http://www.w3.org/2000/svg">
<path d="M7.25854 32.2588C3.50722 32.2504 0.472594 29.4191 0.0438929 25.5271C-0.348167 21.9659 1.92578 18.4655 5.26452 17.5554C8.30574 16.7267 10.834 17.6497 12.8939 20.0644C13.2941 20.535 13.2288 20.8969 12.7166 21.2474C12.4315 21.442 12.1435 21.6321 11.857 21.8245C11.1975 22.267 11.0282 22.2373 10.5621 21.5964C10.1168 20.9717 9.51263 20.488 8.81725 20.1997C7.13689 19.5025 5.34807 19.964 4.12718 21.3888C2.36841 23.4454 2.54795 26.7071 4.51924 28.5409C4.91767 28.916 5.38366 29.2056 5.89039 29.3931C6.39713 29.5805 6.9346 29.6622 7.47186 29.6332C8.00912 29.6043 8.53557 29.4655 9.0209 29.2246C9.50623 28.9838 9.94085 28.6458 10.2998 28.23C10.4221 28.0893 10.5401 27.9441 10.6544 27.7958C10.9901 27.3602 11.2407 27.307 11.687 27.5921C12.0534 27.8202 12.4132 28.0589 12.7686 28.3037C13.2186 28.6139 13.264 28.9743 12.9225 29.4168C11.5214 31.2347 9.468 32.2641 7.25854 32.2588Z" fill="white"/>
<path d="M27.576 32.0855C26.0283 32.0566 26.4453 32.3136 25.5373 30.9579C22.7946 26.8493 20.0587 22.7366 17.3297 18.6199C17.2879 18.5575 17.2454 18.4952 17.2081 18.4305C16.9347 17.9516 17.178 17.4422 17.7152 17.4254C18.3491 17.4026 18.9844 17.4178 19.6205 17.4209C19.9136 17.4209 20.0785 17.6094 20.2192 17.8504C20.9476 19.0933 21.6788 20.3351 22.4125 21.5759C22.4704 21.6724 22.5232 21.7728 22.5877 21.8648C22.8977 22.3126 23.3777 22.3149 23.6613 21.8481C24.1105 21.1098 24.5407 20.3579 24.9752 19.6128C25.3109 19.0395 25.6553 18.4724 25.9792 17.8923C26.1624 17.5638 26.4042 17.4019 26.7794 17.414C27.3408 17.4338 27.9028 17.4231 28.4649 17.414C28.7471 17.414 28.9654 17.5136 29.093 17.7835C29.2139 18.0397 29.145 18.2663 28.9948 18.4906C27.7245 20.3939 26.4543 22.2984 25.1841 24.2042C24.8741 24.6711 24.8734 24.8026 25.179 25.2603C26.4423 27.1534 27.7072 29.0458 28.9735 30.9374C29.1501 31.1997 29.2871 31.462 29.1201 31.7737C28.9588 32.0733 28.6804 32.0969 28.3872 32.0817C28.3389 32.0817 28.2898 32.0817 28.2407 32.0817L27.576 32.0855Z" fill="white"/>
<path d="M29.1853 13.9481C29.1853 14.0621 29.1853 14.1762 29.1853 14.2902C29.164 15.0809 28.6723 15.6299 27.9732 15.639C27.2352 15.6489 26.7149 15.1425 26.693 14.332C26.6556 12.9445 26.4958 11.579 26.0224 10.2751C24.696 6.61503 22.2535 4.16763 18.6136 3.05227C17.7665 2.79225 16.8929 2.7109 16.015 2.6592C15.502 2.62879 15.0953 2.41134 14.8894 1.8989C14.6754 1.36214 14.7428 0.86034 15.1019 0.407203C15.3584 0.0810355 15.7028 -0.00715892 16.0839 0.000444044C17.8866 0.0392192 19.6198 0.420128 21.2532 1.21692C24.4615 2.78237 26.7421 5.28527 28.122 8.66783C28.8086 10.3511 29.1325 12.1219 29.1853 13.9481Z" fill="#F27A1C"/>
<path d="M24.8287 13.7043C24.8477 14.2046 24.88 14.5406 24.7517 14.8752C24.5319 15.4484 24.0189 15.7434 23.3594 15.6537C23.0967 15.6184 22.8539 15.49 22.6721 15.2902C22.4903 15.0903 22.3808 14.8314 22.362 14.5574C22.2931 13.48 22.1839 12.4187 21.7164 11.4287C20.6245 9.11744 18.8825 7.77932 16.3807 7.58773C15.3855 7.5117 14.9114 7.09581 14.893 6.24276C14.8747 5.38971 15.3752 4.8499 16.1953 4.8575C17.6541 4.86961 19.0833 5.28591 20.335 6.06333C22.7284 7.52538 24.1171 9.72416 24.688 12.5091C24.7781 12.9516 24.795 13.4108 24.8287 13.7043Z" fill="#E63C1F"/>
<path d="M16.1747 25.2952C16.2807 27.2923 16.3865 29.2896 16.492 31.2871C16.5198 31.836 16.2934 32.0786 15.7592 32.0831C15.2711 32.0831 14.7823 32.0877 14.2935 32.0831C13.8047 32.0786 13.5834 31.8588 13.5812 31.3403C13.5812 30.783 13.5929 30.2265 13.6025 29.6677C13.6621 26.2367 13.7217 22.8055 13.7813 19.374C13.7937 18.6662 13.9953 18.4662 14.6607 18.4913C15.7855 18.5339 15.8024 18.5324 15.872 19.6812C15.9841 21.5515 16.0721 23.4234 16.1703 25.2944L16.1747 25.2952Z" fill="white"/>
<path d="M16.2004 9.78013C18.1791 9.85616 19.9378 11.4984 20.2456 13.5588C20.294 13.8842 20.346 14.2089 20.3189 14.5403C20.2632 15.2246 19.7224 15.7264 19.0306 15.7302C18.4048 15.734 17.902 15.2573 17.8302 14.5898C17.7899 14.2096 17.7569 13.8363 17.5789 13.4919C17.2352 12.8221 16.679 12.5354 15.9755 12.4693C15.0521 12.3826 14.5443 11.5645 14.8279 10.6522C15.0184 10.0363 15.4625 9.75275 16.2004 9.78013Z" fill="#E39D17"/>
<path d="M18.6135 32.0853C18.357 32.0853 18.1006 32.0785 17.8448 32.0853C17.5517 32.0952 17.2754 32.064 17.1208 31.7622C16.9588 31.4467 17.0966 31.1791 17.271 30.9206C17.8446 30.0705 18.4162 29.2193 18.9858 28.3667C19.306 27.8893 19.6212 27.4072 19.9458 26.9328C20.2338 26.5116 20.5005 26.4424 20.9512 26.6697C21.345 26.8689 21.7358 27.0747 22.1237 27.2871C22.6257 27.5608 22.7217 27.9212 22.4022 28.4017C21.6481 29.5368 20.8816 30.6636 20.1231 31.7964C20.0684 31.8878 19.9912 31.9625 19.8996 32.0128C19.8079 32.0632 19.705 32.0874 19.6014 32.083C19.2723 32.0777 18.9418 32.083 18.6128 32.083L18.6135 32.0853Z" fill="white"/>
<path d="M14.7691 13.3056C15.2605 13.3054 15.732 13.5073 16.0801 13.8672C16.4282 14.2271 16.6245 14.7155 16.6261 15.2253C16.6164 15.7348 16.4165 16.2205 16.0685 16.58C15.7204 16.9396 15.2514 17.1449 14.7603 17.1527C14.269 17.1476 13.7998 16.9406 13.4555 16.577C13.1112 16.2134 12.92 15.7229 12.9239 15.2132C12.9198 14.9609 12.9648 14.7104 13.0561 14.4766C13.1475 14.2428 13.2834 14.0305 13.4556 13.8524C13.6279 13.6743 13.833 13.5341 14.0587 13.4401C14.2844 13.3462 14.526 13.3004 14.7691 13.3056Z" fill="white"/>
</svg>
