<svg width="16" height="15" viewBox="0 0 16 15" fill="none" xmlns="http://www.w3.org/2000/svg">
<path d="M4.25 0.4375H11.75C12.6945 0.438691 13.5999 0.814407 14.2678 1.48225C14.9356 2.15009 15.3113 3.05553 15.3125 4V13.75C15.3124 13.8612 15.2794 13.9698 15.2175 14.0623C15.1557 14.1547 15.0679 14.2267 14.9652 14.2692C14.8625 14.3118 14.7494 14.3229 14.6404 14.3012C14.5313 14.2796 14.4312 14.2261 14.3525 14.1475L12.542 12.337C12.4549 12.2497 12.3515 12.1805 12.2376 12.1334C12.1236 12.0863 12.0015 12.0622 11.8783 12.0625H4.25C3.30553 12.0613 2.40009 11.6856 1.73225 11.0178C1.06441 10.3499 0.688691 9.44447 0.6875 8.5V4C0.688691 3.05553 1.06441 2.15009 1.73225 1.48225C2.40009 0.814407 3.30553 0.438691 4.25 0.4375ZM1.8125 8.5C1.81329 9.14622 2.07036 9.76575 2.5273 10.2227C2.98425 10.6796 3.60378 10.9367 4.25 10.9375H11.8783C12.1493 10.9367 12.4178 10.9897 12.6682 11.0935C12.9187 11.1972 13.146 11.3497 13.337 11.542L14.1875 12.3918V4C14.1867 3.35378 13.9296 2.73425 13.4727 2.2773C13.0157 1.82036 12.3962 1.56329 11.75 1.5625H4.25C3.60378 1.56329 2.98425 1.82036 2.5273 2.2773C2.07036 2.73425 1.81329 3.35378 1.8125 4V8.5Z" fill="#D0D0E8"/>
</svg>
