<svg width="18" height="18" viewBox="0 0 18 18" fill="none" xmlns="http://www.w3.org/2000/svg">
<path d="M8.43951 5.33678L6.69581 7.08048C6.05339 7.72289 5.40731 8.36531 4.76856 9.01506C4.61805 9.16924 4.50425 9.37481 4.4602 9.57672C4.22893 10.6376 4.005 11.6985 3.78108 12.7594L3.65626 13.3468C3.59753 13.6331 3.67462 13.9194 3.86918 14.114C4.01969 14.2645 4.22893 14.3489 4.44919 14.3489C4.51159 14.3489 4.574 14.3416 4.63641 14.3306L5.28249 14.1948C6.31036 13.9782 7.3419 13.7579 8.36976 13.545C8.60837 13.4936 8.81027 13.3872 8.98281 13.2146C11.8682 10.3256 14.7535 7.44023 17.6389 4.55854C17.8518 4.34562 17.9693 4.09233 17.9987 3.7803C18.0023 3.72891 17.9987 3.67751 17.9876 3.62979C17.9693 3.55637 17.9546 3.47928 17.9363 3.40586C17.8959 3.21864 17.8518 3.00573 17.7637 2.80016C17.2241 1.56672 16.3284 0.685695 15.1023 0.190118C14.8563 0.0910022 14.5957 0.0579637 14.3681 0.0285962L14.3057 0.0212543C13.9753 -0.0191261 13.6743 0.0910022 13.4136 0.35531C11.7617 2.01458 10.0988 3.67751 8.43951 5.33678ZM14.1845 0.905951C14.1919 0.905951 14.1956 0.905951 14.2029 0.905951L14.2653 0.913293C14.4562 0.935319 14.6324 0.957345 14.7719 1.01608C15.7704 1.41988 16.5046 2.13939 16.9488 3.15257C17.0002 3.27004 17.0332 3.42055 17.0662 3.5784C17.0773 3.63713 17.0919 3.69587 17.1029 3.7546C17.0883 3.82068 17.0626 3.86473 17.0112 3.91245C14.1221 6.79414 11.2368 9.68317 8.35141 12.5685C8.30368 12.6163 8.25963 12.6383 8.19355 12.653C7.16202 12.8696 6.13415 13.0861 5.10262 13.3027L4.55932 13.4165L4.6621 12.9356C4.88603 11.8784 5.10996 10.8175 5.33756 9.76026C5.3449 9.72722 5.37427 9.67583 5.40731 9.63912C6.04605 8.99304 6.6848 8.35062 7.32721 7.71188L9.07091 5.96818C10.7339 4.30524 12.3968 2.64231 14.0561 0.975699C14.1258 0.916964 14.1588 0.905951 14.1845 0.905951Z" fill="#D0D0E8"/>
<path d="M1.428 4.01525H7.83747C8.08709 4.01525 8.28899 3.81334 8.28899 3.56372C8.28899 3.3141 8.08709 3.11219 7.83747 3.11219H1.428C0.638744 3.11219 0 3.75461 0 4.54019V16.5589C0 17.3481 0.642415 17.9869 1.428 17.9869H13.443C14.2323 17.9869 14.871 17.3444 14.871 16.5589V10.41C14.871 10.1604 14.6691 9.95851 14.4195 9.95851C14.1698 9.95851 13.9679 10.1604 13.9679 10.41V16.5589C13.9679 16.8489 13.7293 17.0875 13.4393 17.0875H1.428C1.13799 17.0875 0.899381 16.8489 0.899381 16.5589V4.54386C0.899381 4.25386 1.13799 4.01525 1.428 4.01525Z" fill="#D0D0E8"/>
</svg>
