<svg width="50" height="50" viewBox="0 0 50 50" fill="none" xmlns="http://www.w3.org/2000/svg">
<path d="M48.9621 23.9621C48.9621 37.197 38.2336 47.9255 25 47.9255C24.1099 47.9255 23.2317 47.877 22.3679 47.7815C19.6574 47.4857 17.0842 46.7371 14.7218 45.6142L6.25223 50L7.71678 40.5594C3.58085 36.2533 1.03778 30.4055 1.03778 23.9621C1.03788 10.7285 11.7651 0 25 0C28.2878 0 31.4198 0.662305 34.2704 1.85986C42.9008 5.48398 48.9621 14.0149 48.9621 23.9621Z" fill="#E63C1F"/>
<path d="M8.38702 48.8945L9.68018 40.5594C5.54425 36.2533 3.00118 30.4055 3.00118 23.9621C3.00118 11.0573 13.2024 0.536523 25.982 0.021582C25.6561 0.00849609 25.3292 0 25 0C11.7651 0 1.0379 10.7285 1.0379 23.9621C1.0379 30.4055 3.58097 36.2533 7.7169 40.5594L6.25226 50L8.38702 48.8945Z" fill="#C81D00"/>
<path d="M25 15.6078C27.3283 15.6078 29.2157 13.7204 29.2157 11.3921C29.2157 9.0638 27.3283 7.17636 25 7.17636C22.6717 7.17636 20.7843 9.0638 20.7843 11.3921C20.7843 13.7204 22.6717 15.6078 25 15.6078Z" fill="#F2F2F2"/>
<path d="M30.7602 36.307V39.5699H19.2399V36.307H21.3392V22.4923H19.2399V19.2307H28.6609V36.307H30.7602Z" fill="#F2F2F2"/>
</svg>
