<svg width="18" height="18" viewBox="0 0 18 18" fill="none" xmlns="http://www.w3.org/2000/svg">
<path d="M7.41522 0.484154C6.73209 1.00111 6.38686 1.88679 6.38686 3.10697V6.00347H2.50847C1.12753 6.00347 0 7.16663 0 8.59968V8.6795C0 8.70231 0.00367272 8.72892 0.00734544 8.75173L1.03938 15.4608C1.23036 17.0725 2.31749 18 4.01796 18H11.7013C13.0822 18 14.2098 16.8368 14.2098 15.4038V7.94968C14.2098 7.72541 14.386 7.54295 14.6027 7.54295H16.7072C16.9239 7.54295 17.1002 7.72541 17.1002 7.94968V15.8523C17.1002 16.0766 16.9239 16.2591 16.7072 16.2591H15.4915C15.2418 16.2591 15.0398 16.4681 15.0398 16.7266C15.0398 16.9851 15.2418 17.1942 15.4915 17.1942H16.7072C17.4197 17.1942 18 16.5936 18 15.8561V7.94968C18 7.21225 17.4197 6.61166 16.7072 6.61166H14.6027C14.0959 6.61166 13.6552 6.91575 13.4422 7.35669C13.4128 7.33769 13.3797 7.32628 13.343 7.31488C13.2218 7.28067 10.3534 6.4102 10.3534 3.8482V0.594388C10.3534 0.389124 10.2249 0.210469 10.0375 0.14965C9.97878 0.130644 8.495 -0.336901 7.41522 0.484154ZM13.1043 8.20816C13.174 8.22716 13.2438 8.23096 13.3099 8.21576V15.4038C13.3099 16.3199 12.5901 17.0687 11.7013 17.0687H9.2626H4.01796C2.76923 17.0687 2.06774 16.4909 1.92818 15.3316L0.899816 8.64149V8.59968C0.899816 7.68359 1.61967 6.93476 2.50847 6.93476H6.8386C7.08835 6.93476 7.29035 6.7257 7.29035 6.46721V3.10697C7.29035 2.19849 7.51071 1.57129 7.94777 1.23679C8.42155 0.871875 9.07529 0.906085 9.45725 0.970705V3.8444C9.45725 7.11342 12.9537 8.16634 13.1043 8.20816Z" fill="#D0D0E8"/>
</svg>
