<svg width="18" height="18" viewBox="0 0 18 18" fill="none" xmlns="http://www.w3.org/2000/svg">
<path d="M0 9.47558V11.9117C0 12.2928 0.308983 12.6018 0.690172 12.6018H2.92901V9.97787C2.92901 9.06492 3.15065 8.20334 3.54088 7.4417C2.73108 7.39361 1.99972 7.05087 1.45195 6.51938C0.569003 7.20305 0 8.27253 0 9.47558Z" fill="#D0D0E8"/>
<path d="M5.26578 5.44006C4.9158 4.86543 4.71412 4.19113 4.71412 3.47062C4.71412 3.03182 4.78981 2.61065 4.92732 2.21827C4.5809 2.00588 4.17352 1.8833 3.73741 1.8833C2.47816 1.8833 1.45731 2.90402 1.45731 4.16333C1.45731 5.42258 2.47816 6.44343 3.73741 6.44343C3.91082 6.44343 4.07948 6.42341 4.24184 6.3867C4.54218 6.03023 4.88633 5.71227 5.26578 5.44006Z" fill="#D0D0E8"/>
<path d="M11.459 10.0696C11.8286 10.0696 12.1903 10.1517 12.5195 10.305L13.0877 9.88946C13.0587 8.37007 12.2903 7.03239 11.1265 6.22092C10.445 6.86923 9.52442 7.26843 8.5118 7.26843C7.49918 7.26843 6.5786 6.86923 5.897 6.22098C4.71063 7.0482 3.93365 8.42198 3.93365 9.97801V12.9622C3.93365 13.4291 4.31216 13.8076 4.77909 13.8076H9.25314C9.05301 13.4464 8.9386 13.0313 8.9386 12.59C8.9386 11.2001 10.0692 10.0696 11.459 10.0696Z" fill="#D0D0E8"/>
<path d="M8.51182 6.26359C10.0543 6.26359 11.3048 5.01313 11.3048 3.47062C11.3048 1.9281 10.0543 0.677643 8.51182 0.677643C6.9693 0.677643 5.71884 1.9281 5.71884 3.47062C5.71884 5.01313 6.9693 6.26359 8.51182 6.26359Z" fill="#D0D0E8"/>
<path d="M16.5513 14.425C16.3211 14.425 16.1044 14.4801 15.9111 14.5756L13.1964 12.5899L15.8913 10.6186C16.0894 10.7203 16.3134 10.7788 16.5512 10.7788C17.3067 10.7788 17.9263 10.2003 17.9932 9.46245C18.0711 8.59545 17.3861 7.8815 16.5512 7.8815C15.7512 7.8815 15.1026 8.53008 15.1026 9.33017C15.1026 9.39648 15.1086 9.46125 15.1172 9.52515L12.4139 11.5025C12.1487 11.2699 11.8094 11.1413 11.4589 11.1413C10.6589 11.1413 10.0103 11.7898 10.0103 12.5899C10.0103 13.39 10.6589 14.0386 11.4589 14.0386C11.8121 14.0386 12.1508 13.9086 12.4139 13.6773L15.1205 15.6571C15.1099 15.7279 15.1026 15.7999 15.1026 15.8737C15.1026 16.6737 15.7512 17.3223 16.5512 17.3223C17.3491 17.3223 17.9999 16.6756 17.9999 15.8737C18 15.076 17.3533 14.425 16.5513 14.425Z" fill="#D0D0E8"/>
</svg>
