<svg width="10" height="18" viewBox="0 0 10 18" fill="none" xmlns="http://www.w3.org/2000/svg">
<path d="M0.832127 15.8635C0.747979 15.9157 0.674455 15.9849 0.615806 16.0672C0.557156 16.1495 0.514544 16.2433 0.490434 16.3431C0.466323 16.4429 0.461192 16.5468 0.475336 16.6487C0.48948 16.7506 0.52262 16.8486 0.57284 16.9369C0.623059 17.0252 0.689362 17.1021 0.767916 17.1632C0.846469 17.2243 0.935716 17.2684 1.0305 17.2929C1.12528 17.3173 1.22371 17.3217 1.32011 17.3058C1.4165 17.2898 1.50895 17.2539 1.5921 17.2C2.91813 16.3603 3.89566 15.345 4.5257 13.942C5.14588 12.5598 5.39593 10.8711 5.39593 8.73752V3.0841L8.07357 5.91081C8.14116 5.98738 8.22267 6.04881 8.31324 6.09141C8.4038 6.13401 8.50157 6.15691 8.60071 6.15876C8.69984 6.16061 8.79831 6.14135 8.89025 6.10215C8.98218 6.06295 9.06569 6.00461 9.1358 5.93059C9.20591 5.85658 9.26118 5.76842 9.29832 5.67137C9.33545 5.57431 9.35369 5.47036 9.35194 5.36571C9.35019 5.26105 9.32849 5.15784 9.28813 5.06223C9.24778 4.96663 9.1896 4.88058 9.11706 4.80922L5.17935 0.65229C5.04092 0.50633 4.85326 0.424347 4.65761 0.424347C4.46195 0.424347 4.2743 0.50633 4.13586 0.65229L0.198157 4.80922C0.0677399 4.95697 -0.0032598 5.1524 0.000115028 5.35432C0.00348985 5.55624 0.0809758 5.7489 0.216249 5.89171C0.351522 6.03451 0.53402 6.11631 0.725295 6.11987C0.91657 6.12344 1.10169 6.04848 1.24165 5.91081L3.91929 3.0841V8.73752C3.91929 10.7609 3.6781 12.1888 3.19081 13.2748C2.71238 14.3411 1.96717 15.1444 0.832127 15.8625V15.8635Z" fill="#3EB620"/>
</svg>
