<svg width="24" height="25" viewBox="0 0 24 25" fill="none" xmlns="http://www.w3.org/2000/svg">
<path d="M18 11.5376H14.82C14.4 10.3561 13.3 9.50054 12 9.50054C10.7 9.50054 9.6 10.3561 9.18 11.5376H6C5.67 11.5376 4 11.4358 4 9.50054V8.48201C4 6.61808 5.54 6.44493 6 6.44493H16.18C16.6 7.62643 17.7 8.48201 19 8.48201C19.7956 8.48201 20.5587 8.16008 21.1213 7.58704C21.6839 7.014 22 6.23679 22 5.42639C22 4.61599 21.6839 3.83878 21.1213 3.26574C20.5587 2.6927 19.7956 2.37077 19 2.37077C17.7 2.37077 16.6 3.22635 16.18 4.40785H6C4.39 4.40785 2 5.4875 2 8.48201V9.50054C2 12.495 4.39 13.5747 6 13.5747H9.18C9.6 14.7562 10.7 15.6118 12 15.6118C13.3 15.6118 14.4 14.7562 14.82 13.5747H18C18.33 13.5747 20 13.6766 20 15.6118V16.6303C20 18.4942 18.46 18.6674 18 18.6674H7.82C7.4 17.4859 6.3 16.6303 5 16.6303C4.20435 16.6303 3.44129 16.9522 2.87868 17.5253C2.31607 18.0983 2 18.8755 2 19.6859C2 20.4963 2.31607 21.2735 2.87868 21.8466C3.44129 22.4196 4.20435 22.7415 5 22.7415C6.3 22.7415 7.4 21.886 7.82 20.7045H18C19.61 20.7045 22 19.6146 22 16.6303V15.6118C22 12.6275 19.61 11.5376 18 11.5376ZM19 4.40785C19.2652 4.40785 19.5196 4.51516 19.7071 4.70617C19.8946 4.89719 20 5.15626 20 5.42639C20 5.69652 19.8946 5.95559 19.7071 6.1466C19.5196 6.33762 19.2652 6.44493 19 6.44493C18.7348 6.44493 18.4804 6.33762 18.2929 6.1466C18.1054 5.95559 18 5.69652 18 5.42639C18 5.15626 18.1054 4.89719 18.2929 4.70617C18.4804 4.51516 18.7348 4.40785 19 4.40785ZM5 20.7045C4.73478 20.7045 4.48043 20.5972 4.29289 20.4061C4.10536 20.2151 4 19.9561 4 19.6859C4 19.4158 4.10536 19.1567 4.29289 18.9657C4.48043 18.7747 4.73478 18.6674 5 18.6674C5.26522 18.6674 5.51957 18.7747 5.70711 18.9657C5.89464 19.1567 6 19.4158 6 19.6859C6 19.9561 5.89464 20.2151 5.70711 20.4061C5.51957 20.5972 5.26522 20.7045 5 20.7045Z" fill="#E63C1F"/>
</svg>
