<svg width="50" height="50" viewBox="0 0 50 50" fill="none" xmlns="http://www.w3.org/2000/svg">
<g clip-path="url(#clip0_839_277)">
<path d="M44.485 9.16794L46.8427 6.1581C45.4403 4.21653 43.738 2.66695 41.8432 1.60707C39.9483 0.547191 37.902 0 35.8332 0C33.7644 0 31.7181 0.547191 29.8233 1.60707C27.9284 2.66695 26.2261 4.21653 24.8237 6.1581L27.1814 9.16794C28.2738 7.62149 29.6083 6.38512 31.0987 5.53886C32.5891 4.6926 34.2021 4.25531 35.8332 4.25531C37.4644 4.25531 39.0773 4.6926 40.5677 5.53886C42.0581 6.38512 43.3926 7.62149 44.485 9.16794Z" fill="#E63C1F"/>
<path d="M29.5433 12.1828L31.9079 15.2014C32.3749 14.4424 32.9709 13.8287 33.6508 13.4067C34.3308 12.9847 35.0769 12.7654 35.833 12.7654C36.5891 12.7654 37.3352 12.9847 38.0152 13.4067C38.6952 13.8287 39.2911 14.4424 39.7581 15.2014L42.1227 12.1828C41.3421 11.0304 40.3763 10.1059 39.2909 9.47225C38.2055 8.83861 37.0261 8.51065 35.8326 8.51065C34.6391 8.51065 33.4596 8.83861 32.3743 9.47225C31.2889 10.1059 30.3231 11.0304 29.5425 12.1828H29.5433Z" fill="#E63C1F"/>
<path d="M47.5 28.7234H37.5V20.2128H34.1667V28.7234H2.5C1.8372 28.7244 1.20176 29.0609 0.733086 29.6592C0.264412 30.2576 0.000771922 31.0688 0 31.9149L0 46.8085C0.000771922 47.6546 0.264412 48.4658 0.733086 49.0641C1.20176 49.6624 1.8372 49.999 2.5 50H47.5C48.1628 49.999 48.7982 49.6624 49.2669 49.0641C49.7356 48.4658 49.9992 47.6546 50 46.8085V31.9149C49.9992 31.0688 49.7356 30.2576 49.2669 29.6592C48.7982 29.0609 48.1628 28.7244 47.5 28.7234ZM46.6667 45.7447H3.33333V32.9787H46.6667V45.7447Z" fill="#E63C1F"/>
<path d="M11.6668 37.234H8.3335V41.4894H11.6668V37.234Z" fill="#E63C1F"/>
<path d="M19.9998 37.234H16.6665V41.4894H19.9998V37.234Z" fill="#E63C1F"/>
<path d="M28.3333 37.234H25V41.4894H28.3333V37.234Z" fill="#E63C1F"/>
</g>
<defs>
<clipPath id="clip0_839_277">
<rect width="50" height="50" fill="white"/>
</clipPath>
</defs>
</svg>
