<svg width="40" height="24" viewBox="0 0 40 24" fill="none" xmlns="http://www.w3.org/2000/svg">
<g clip-path="url(#clip0_810_653)">
<path d="M19.9089 0.173645C12.3321 0.173645 5.46101 4.23108 0.39086 10.8214C-0.0228647 11.3614 -0.0228647 12.1157 0.39086 12.6556C5.46101 19.2539 12.3321 23.3114 19.9089 23.3114C27.4857 23.3114 34.3568 19.2539 39.427 12.6636C39.8407 12.1236 39.8407 11.3693 39.427 10.8294C34.3568 4.23109 27.4857 0.173645 19.9089 0.173645ZM20.4524 19.8891C15.4228 20.1988 11.2694 16.1414 11.5858 11.2105C11.8453 7.14514 15.2119 3.84995 19.3654 3.59587C24.395 3.2862 28.5484 7.34364 28.2321 12.2745C27.9644 16.3319 24.5978 19.6271 20.4524 19.8891ZM20.201 16.1255C17.4915 16.2922 15.2525 14.1087 15.431 11.4567C15.5689 9.26517 17.386 7.4945 19.625 7.35158C22.3345 7.18484 24.5735 9.36839 24.395 12.0204C24.249 14.2198 22.4318 15.9905 20.201 16.1255Z" fill="white"/>
</g>
<defs>
<clipPath id="clip0_810_653">
<rect width="39.6567" height="23.1377" fill="white" transform="translate(0.0805664 0.173645)"/>
</clipPath>
</defs>
</svg>
