<svg width="56" height="55" viewBox="0 0 56 55" fill="none" xmlns="http://www.w3.org/2000/svg">
<path d="M55.1622 27.2335C55.1622 42.2345 42.8703 54.3952 27.7076 54.3952C12.5448 54.3952 0.25293 42.2345 0.25293 27.2335C0.25293 12.2325 12.5448 0.0718536 27.7076 0.0718536C42.8703 0.0718536 55.1622 12.2325 55.1622 27.2335Z" fill="#E63C1F"/>
<path d="M1.12516 20.4152H27.1426V33.8283H1.06777L0.591876 32.0399L0.446415 30.475L0.25293 28.7984V27.2335V25.5569L0.474237 23.7685L0.591876 22.0918L1.12516 20.4152Z" fill="white"/>
<rect x="30.0806" y="25.5569" width="2.4856" height="3.12974" fill="white"/>
<rect x="30.0806" y="29.1337" width="2.4856" height="3.12974" fill="white"/>
<rect x="27.3691" y="21.3094" width="2.4856" height="11.6248" fill="white"/>
<rect x="30.0806" y="21.98" width="2.4856" height="3.12974" fill="white"/>
<path fill-rule="evenodd" clip-rule="evenodd" d="M43.1866 22.7625L32.3403 22.7625V22.0918L43.1866 22.0918C43.3738 22.0918 43.5256 22.242 43.5256 22.4272C43.5256 22.6124 43.3738 22.7625 43.1866 22.7625Z" fill="white"/>
<path d="M43.6283 22.4272C43.6295 22.6741 43.431 22.8752 43.1849 22.8765C42.9388 22.8777 42.7383 22.6785 42.7371 22.4316C42.7359 22.1847 42.9344 21.9835 43.1805 21.9823C43.4266 21.981 43.6271 22.1802 43.6283 22.4272Z" fill="white"/>
<path fill-rule="evenodd" clip-rule="evenodd" d="M46.8017 23.8802L32.5659 23.8802V23.2096L46.8017 23.2096C46.9888 23.2096 47.1406 23.3597 47.1406 23.5449C47.1406 23.7301 46.9888 23.8802 46.8017 23.8802Z" fill="white"/>
<path d="M47.2435 23.5449C47.2447 23.7918 47.0462 23.993 46.8001 23.9942C46.554 23.9954 46.3535 23.7962 46.3523 23.5493C46.3511 23.3024 46.5496 23.1012 46.7957 23.1C47.0418 23.0988 47.2423 23.298 47.2435 23.5449Z" fill="white"/>
<path fill-rule="evenodd" clip-rule="evenodd" d="M44.316 24.998L32.5659 24.998V24.3273L44.316 24.3273C44.5032 24.3273 44.655 24.4775 44.655 24.6627C44.655 24.8479 44.5032 24.998 44.316 24.998Z" fill="white"/>
<path d="M44.7577 24.6627C44.7589 24.9096 44.5604 25.1107 44.3143 25.112C44.0682 25.1132 43.8677 24.914 43.8665 24.6671C43.8652 24.4202 44.0638 24.219 44.3099 24.2178C44.556 24.2165 44.7565 24.4157 44.7577 24.6627Z" fill="white"/>
<path fill-rule="evenodd" clip-rule="evenodd" d="M42.96 26.3393L32.1138 26.3393V25.6687L42.96 25.6687C43.1472 25.6687 43.299 25.8188 43.299 26.004C43.299 26.1892 43.1472 26.3393 42.96 26.3393Z" fill="white"/>
<path d="M43.4017 26.004C43.4029 26.2509 43.2044 26.4521 42.9583 26.4533C42.7122 26.4545 42.5117 26.2553 42.5105 26.0084C42.5093 25.7615 42.7078 25.5603 42.9539 25.5591C43.2 25.5579 43.4005 25.7571 43.4017 26.004Z" fill="white"/>
<path fill-rule="evenodd" clip-rule="evenodd" d="M46.5761 27.4571L32.3403 27.4571V26.7864L46.5761 26.7864C46.7633 26.7864 46.915 26.9366 46.915 27.1218C46.915 27.3069 46.7633 27.4571 46.5761 27.4571Z" fill="white"/>
<path d="M47.0174 27.1217C47.0187 27.3687 46.8202 27.5698 46.5741 27.5711C46.328 27.5723 46.1275 27.3731 46.1262 27.1262C46.125 26.8793 46.3235 26.6781 46.5696 26.6769C46.8157 26.6756 47.0162 26.8748 47.0174 27.1217Z" fill="white"/>
<path fill-rule="evenodd" clip-rule="evenodd" d="M44.0905 28.5748L32.3403 28.5748V27.9042L44.0905 27.9042C44.2777 27.9042 44.4294 28.0543 44.4294 28.2395C44.4294 28.4247 44.2777 28.5748 44.0905 28.5748Z" fill="white"/>
<path d="M44.5316 28.2395C44.5328 28.4864 44.3343 28.6876 44.0882 28.6888C43.8421 28.6901 43.6416 28.4909 43.6404 28.2439C43.6392 27.997 43.8377 27.7959 44.0838 27.7946C44.3299 27.7934 44.5304 27.9926 44.5316 28.2395Z" fill="white"/>
<path fill-rule="evenodd" clip-rule="evenodd" d="M43.1866 29.9162L32.3403 29.9162V29.2455L43.1866 29.2455C43.3738 29.2455 43.5256 29.3956 43.5256 29.5808C43.5256 29.766 43.3738 29.9162 43.1866 29.9162Z" fill="white"/>
<path d="M43.6283 29.5808C43.6295 29.8277 43.431 30.0289 43.1849 30.0301C42.9388 30.0314 42.7383 29.8322 42.7371 29.5853C42.7359 29.3383 42.9344 29.1372 43.1805 29.1359C43.4266 29.1347 43.6271 29.3339 43.6283 29.5808Z" fill="white"/>
<path fill-rule="evenodd" clip-rule="evenodd" d="M46.8017 31.0339L32.5659 31.0339V30.3633L46.8017 30.3633C46.9888 30.3633 47.1406 30.5134 47.1406 30.6986C47.1406 30.8838 46.9888 31.0339 46.8017 31.0339Z" fill="white"/>
<path d="M47.2435 30.6986C47.2447 30.9455 47.0462 31.1467 46.8001 31.1479C46.554 31.1491 46.3535 30.95 46.3523 30.703C46.3511 30.4561 46.5496 30.2549 46.7957 30.2537C47.0418 30.2525 47.2423 30.4517 47.2435 30.6986Z" fill="white"/>
<path fill-rule="evenodd" clip-rule="evenodd" d="M44.316 32.1517H32.5659V31.481L44.316 31.481C44.5032 31.481 44.655 31.6312 44.655 31.8164C44.655 32.0016 44.5032 32.1517 44.316 32.1517Z" fill="white"/>
<path d="M44.7577 31.8164C44.7589 32.0633 44.5604 32.2645 44.3143 32.2657C44.0682 32.2669 43.8677 32.0677 43.8665 31.8208C43.8652 31.5739 44.0638 31.3727 44.3099 31.3715C44.556 31.3703 44.7565 31.5694 44.7577 31.8164Z" fill="white"/>
</svg>
