<svg width="29" height="28" viewBox="0 0 29 28" fill="none" xmlns="http://www.w3.org/2000/svg">
<path d="M9.28228 3.25708C9.28228 2.15251 10.1777 1.25708 11.2823 1.25708C12.3868 1.25708 13.2823 2.15251 13.2823 3.25708L9.28228 3.25708ZM1.18044 19.665C0.407885 18.8756 0.421576 17.6093 1.21102 16.8368C2.00047 16.0642 3.26673 16.0779 4.03928 16.8674L1.18044 19.665ZM6.50083 22.2422L7.93025 20.8434L6.50083 22.2422ZM13.2823 3.25708L13.2823 20.2919L9.28228 20.2919L9.28228 3.25708L13.2823 3.25708ZM5.07141 23.6411L1.18044 19.665L4.03928 16.8674L7.93025 20.8434L5.07141 23.6411ZM13.2823 20.2919C13.2823 24.583 8.07269 26.708 5.07141 23.6411L7.93025 20.8434C8.42445 21.3484 9.28228 20.9985 9.28228 20.2919L13.2823 20.2919Z" fill="#F2F2F2"/>
<path d="M19.3894 24.6665C19.3894 25.7711 18.494 26.6665 17.3894 26.6665C16.2848 26.6665 15.3894 25.7711 15.3894 24.6665L19.3894 24.6665ZM27.8268 9.05276C28.5802 9.86049 28.5362 11.1261 27.7285 11.8795C26.9207 12.6329 25.6552 12.5889 24.9017 11.7812L27.8268 9.05276ZM15.3894 24.6665L15.3894 7.63168L19.3894 7.63168L19.3894 24.6665L15.3894 24.6665ZM23.515 4.43026L27.8268 9.05276L24.9017 11.7812L20.5899 7.15867L23.515 4.43026ZM15.3894 7.63168C15.3894 3.37113 20.6088 1.3147 23.515 4.43026L20.5899 7.15867C20.1606 6.69835 19.3894 7.00219 19.3894 7.63168L15.3894 7.63168Z" fill="#F2F2F2"/>
</svg>
