<svg width="54" height="54" viewBox="0 0 54 54" fill="none" xmlns="http://www.w3.org/2000/svg">
<path d="M24.8164 28.027C24.8164 40.2396 24.8164 28.161 24.8164 48.1297C11.1107 48.1297 0 38.2294 0 26.0167C0 13.8041 11.1107 3.90375 24.8164 3.90375C24.8164 28.027 24.8164 15.8143 24.8164 28.027Z" fill="#E63C1F"/>
<path fill-rule="evenodd" clip-rule="evenodd" d="M33.5398 27.4909L24.2148 27.4909V24.8106L33.5398 24.8106V27.4909Z" fill="#E63C1F"/>
<path d="M34.4422 26.0167C34.4422 27.127 33.4995 28.027 32.3366 28.027C31.1737 28.027 30.231 27.127 30.231 26.0167C30.231 24.9065 31.1737 24.0065 32.3366 24.0065C33.4995 24.0065 34.4422 24.9065 34.4422 26.0167Z" fill="#E63C1F"/>
<path fill-rule="evenodd" clip-rule="evenodd" d="M37.0096 26.3698C37.0774 21.9641 34.9326 18.2898 31.1711 17.0459C30.003 16.6597 29.4074 15.5027 29.8409 14.4618C30.2745 13.421 31.5728 12.8903 32.741 13.2766C38.9528 15.3307 41.604 21.0453 41.5213 26.4249C41.4381 31.8279 38.6283 37.6947 32.8348 40.5778C31.747 41.1192 30.3726 40.7723 29.7651 39.8029C29.1575 38.8336 29.5469 37.609 30.6347 37.0676C34.6547 35.0671 36.9422 30.7522 37.0096 26.3698Z" fill="#E63C1F"/>
<path fill-rule="evenodd" clip-rule="evenodd" d="M43.0543 25.9068C43.1675 18.5515 39.577 12.047 32.8092 9.80897C31.641 9.42269 31.0455 8.26575 31.479 7.22487C31.9125 6.18399 33.2109 5.65334 34.379 6.03962C43.5972 9.0879 47.6942 17.6326 47.566 25.9619C47.4374 34.3146 43.0911 43.2505 34.3394 47.6058C33.2516 48.1471 31.8773 47.8002 31.2697 46.8309C30.6622 45.8615 31.0515 44.6369 32.1394 44.0955C39.1175 40.6229 42.9415 33.2388 43.0543 25.9068Z" fill="#E63C1F"/>
<path fill-rule="evenodd" clip-rule="evenodd" d="M49.2486 25.6623C49.3997 15.8458 44.6028 6.9797 35.3265 3.91217C34.1584 3.52589 33.5628 2.36895 33.9963 1.32808C34.4299 0.287202 35.7282 -0.243452 36.8964 0.142829C48.623 4.02064 53.9264 14.9269 53.7603 25.7175C53.5939 36.5313 47.9655 48.0283 36.7455 53.6119C35.6576 54.1532 34.2833 53.8063 33.6758 52.837C33.0682 51.8676 33.4576 50.643 34.5454 50.1017C43.9918 45.4007 49.0979 35.4556 49.2486 25.6623Z" fill="#E63C1F"/>
</svg>
